<svg width="244" height="51" viewBox="0 0 244 51" fill="none" xmlns="http://www.w3.org/2000/svg">
    <path d="M132.287 0H106.572V24H132.287V0Z" fill="#00B67A"/>
    <path d="M160.144 0H134.429V24H160.144V0Z" fill="#00B67A"/>
    <path d="M188.001 0H162.286V24H188.001V0Z" fill="#00B67A"/>
    <path d="M215.858 0H190.144V24H215.858V0Z" fill="#00B67A"/>
    <path d="M243.715 0H230.858V24H243.715V0Z" fill="#DCDCE6"/>
    <path d="M230.858 0H218.001V24H230.858V0Z" fill="#00B67A"/>
    <path d="M119.429 16.1749L123.34 15.2499L124.974 19.9499L119.429 16.1749ZM128.429 10.0999H121.546L119.429 4.04993L117.313 10.0999H110.429L116.001 13.8499L113.885 19.8999L119.456 16.1499L122.885 13.8499L128.429 10.0999Z" fill="white"/>
    <path d="M147.286 16.1749L151.197 15.2499L152.831 19.9499L147.286 16.1749ZM156.286 10.0999H149.403L147.286 4.04993L145.17 10.0999H138.286L143.858 13.8499L141.742 19.8999L147.313 16.1499L150.742 13.8499L156.286 10.0999Z" fill="white"/>
    <path d="M175.144 16.1749L179.054 15.2499L180.688 19.9499L175.144 16.1749ZM184.144 10.0999H177.26L175.144 4.04993L173.027 10.0999H166.144L171.715 13.8499L169.599 19.8999L175.17 16.1499L178.599 13.8499L184.144 10.0999Z" fill="white"/>
    <path d="M203.001 16.1749L206.912 15.2499L208.546 19.9499L203.001 16.1749ZM212.001 10.0999H205.117L203.001 4.04993L200.885 10.0999H194.001L199.572 13.8499L197.456 19.8999L203.028 16.1499L206.456 13.8499L212.001 10.0999Z" fill="white"/>
    <path d="M230.858 16.1749L234.769 15.2499L236.403 19.9499L230.858 16.1749ZM239.858 10.0999H232.974L230.858 4.04993L228.742 10.0999H221.858L227.429 13.8499L225.313 19.8999L230.885 16.1499L234.313 13.8499L239.858 10.0999Z" fill="white"/>
    <path d="M11.7119 20H3.83765V6.07959H11.7119V8.00293H6.11328V11.7925H11.3596V13.6968H6.11328V18.0671H11.7119V20ZM16.8345 14.6204L13.302 9.46924H15.8538L18.2532 13.1541L20.6716 9.46924H23.2043L19.6624 14.6204L23.3853 20H20.8525L18.2532 16.0581L15.6633 20H13.1306L16.8345 14.6204ZM29.479 20.1904C27.8857 20.1904 26.6733 19.7271 25.8418 18.8003C25.0166 17.8672 24.604 16.531 24.604 14.7917C24.604 13.0208 25.0356 11.6592 25.8989 10.707C26.7686 9.75488 28.0222 9.27881 29.6599 9.27881C30.7708 9.27881 31.7705 9.48511 32.6592 9.89771L31.9832 11.6973C31.0374 11.3291 30.2566 11.145 29.6409 11.145C27.8191 11.145 26.9082 12.3542 26.9082 14.7727C26.9082 15.9534 27.1335 16.842 27.5842 17.4387C28.0413 18.0291 28.7078 18.3242 29.5837 18.3242C30.5803 18.3242 31.5229 18.0767 32.4116 17.5815V19.5334C32.0117 19.7683 31.5833 19.9365 31.1262 20.0381C30.6755 20.1396 30.1265 20.1904 29.479 20.1904ZM39.4861 20.1904C37.8484 20.1904 36.5662 19.7144 35.6394 18.7622C34.719 17.8037 34.2588 16.4866 34.2588 14.8108C34.2588 13.0906 34.6873 11.7385 35.5442 10.7546C36.4011 9.77075 37.5786 9.27881 39.0767 9.27881C40.4668 9.27881 41.5649 9.70093 42.3711 10.5452C43.1772 11.3894 43.5803 12.551 43.5803 14.03V15.2393H36.563C36.5947 16.2612 36.8708 17.0483 37.3914 17.6006C37.9119 18.1465 38.645 18.4194 39.5908 18.4194C40.2129 18.4194 40.7905 18.3623 41.3237 18.248C41.8633 18.1274 42.4409 17.9307 43.0566 17.6577V19.4763C42.5107 19.7366 41.9585 19.9207 41.3999 20.0286C40.8413 20.1365 40.2034 20.1904 39.4861 20.1904ZM39.0767 10.9736C38.3657 10.9736 37.7944 11.199 37.3628 11.6497C36.9375 12.1003 36.6836 12.7573 36.6011 13.6206H41.3809C41.3682 12.751 41.1587 12.094 40.7524 11.6497C40.3462 11.199 39.7876 10.9736 39.0767 10.9736ZM48.3601 20H46.1226V5.18457H48.3601V20ZM53.8064 20H51.5688V5.18457H53.8064V20ZM61.614 20.1904C59.9763 20.1904 58.6941 19.7144 57.7673 18.7622C56.8469 17.8037 56.3867 16.4866 56.3867 14.8108C56.3867 13.0906 56.8152 11.7385 57.6721 10.7546C58.5291 9.77075 59.7065 9.27881 61.2046 9.27881C62.5947 9.27881 63.6929 9.70093 64.499 10.5452C65.3052 11.3894 65.7083 12.551 65.7083 14.03V15.2393H58.6909C58.7227 16.2612 58.9988 17.0483 59.5193 17.6006C60.0398 18.1465 60.7729 18.4194 61.7188 18.4194C62.3408 18.4194 62.9185 18.3623 63.4517 18.248C63.9912 18.1274 64.5688 17.9307 65.1846 17.6577V19.4763C64.6387 19.7366 64.0864 19.9207 63.5278 20.0286C62.9692 20.1365 62.3313 20.1904 61.614 20.1904ZM61.2046 10.9736C60.4937 10.9736 59.9224 11.199 59.4907 11.6497C59.0654 12.1003 58.8115 12.7573 58.729 13.6206H63.5088C63.4961 12.751 63.2866 12.094 62.8804 11.6497C62.4741 11.199 61.9155 10.9736 61.2046 10.9736ZM77.5149 20H75.2678V13.5254C75.2678 12.7129 75.1028 12.1067 74.7727 11.7068C74.449 11.3069 73.9316 11.1069 73.2207 11.1069C72.2749 11.1069 71.583 11.3862 71.145 11.9448C70.707 12.5034 70.488 13.4397 70.488 14.7537V20H68.2505V9.46924H70.0024L70.3167 10.8499H70.4309C70.7483 10.3484 71.199 9.96118 71.783 9.68823C72.3669 9.41528 73.0144 9.27881 73.7253 9.27881C76.2517 9.27881 77.5149 10.5642 77.5149 13.135V20ZM84.5513 18.3813C85.0972 18.3813 85.6431 18.2957 86.189 18.1243V19.8096C85.9414 19.9175 85.6208 20.0063 85.2273 20.0762C84.8401 20.1523 84.437 20.1904 84.0181 20.1904C81.8979 20.1904 80.8379 19.0732 80.8379 16.8389V11.1641H79.4001V10.1738L80.9426 9.35498L81.7043 7.12695H83.085V9.46924H86.0842V11.1641H83.085V16.8008C83.085 17.3403 83.2183 17.7402 83.4849 18.0005C83.7578 18.2544 84.1133 18.3813 84.5513 18.3813Z" fill="white"/>
    <path d="M187.463 39.0758H195.1V40.3945H192.097V47.8074H190.446V40.3945H187.456V39.0758H187.463ZM194.774 41.4852H196.186V42.7053H196.212C196.259 42.5327 196.346 42.3663 196.472 42.2061C196.599 42.0459 196.752 41.8919 196.931 41.7625C197.111 41.6269 197.311 41.5221 197.531 41.4359C197.75 41.3558 197.977 41.3126 198.203 41.3126C198.376 41.3126 198.503 41.3188 198.569 41.325C198.636 41.3311 198.703 41.3434 198.776 41.3496V42.6929C198.669 42.6745 198.563 42.6621 198.45 42.6498C198.336 42.6375 198.23 42.6313 198.123 42.6313C197.87 42.6313 197.631 42.6806 197.404 42.773C197.178 42.8655 196.985 43.0072 196.818 43.1859C196.652 43.3708 196.519 43.5926 196.419 43.8637C196.319 44.1349 196.272 44.443 196.272 44.7942V47.8013H194.767V41.4852H194.774ZM205.694 47.8074H204.216V46.9263H204.189C204.003 47.2467 203.73 47.4993 203.364 47.6904C202.997 47.8814 202.625 47.98 202.245 47.98C201.346 47.98 200.694 47.7766 200.294 47.3638C199.895 46.9509 199.695 46.3286 199.695 45.4967V41.4852H201.2V45.3611C201.2 45.9157 201.313 46.3101 201.546 46.5381C201.772 46.7661 202.099 46.8831 202.511 46.8831C202.831 46.8831 203.091 46.84 203.304 46.7476C203.517 46.6551 203.69 46.5381 203.816 46.384C203.95 46.2361 204.043 46.0513 204.103 45.8417C204.163 45.6322 204.189 45.4042 204.189 45.1578V41.4913H205.694V47.8074ZM208.258 45.7801C208.304 46.1868 208.471 46.4703 208.757 46.6367C209.05 46.7969 209.396 46.8831 209.803 46.8831C209.942 46.8831 210.102 46.8708 210.282 46.8523C210.462 46.8338 210.635 46.7907 210.788 46.7352C210.948 46.6798 211.074 46.5935 211.181 46.4826C211.281 46.3717 211.327 46.23 211.321 46.0513C211.314 45.8726 211.241 45.7247 211.108 45.6138C210.974 45.4967 210.808 45.4104 210.602 45.3365C210.395 45.2687 210.162 45.2071 209.896 45.1578C209.629 45.1085 209.363 45.053 209.09 44.9975C208.81 44.9421 208.537 44.8681 208.278 44.788C208.018 44.7079 207.785 44.597 207.579 44.4553C207.372 44.3197 207.206 44.141 207.086 43.9253C206.959 43.7097 206.899 43.4447 206.899 43.1243C206.899 42.7792 206.993 42.4958 207.172 42.2616C207.352 42.0274 207.585 41.8426 207.858 41.7008C208.138 41.5591 208.444 41.4605 208.784 41.3989C209.123 41.3434 209.45 41.3126 209.756 41.3126C210.109 41.3126 210.448 41.3496 210.768 41.4174C211.088 41.4852 211.381 41.5961 211.64 41.7563C211.9 41.9104 212.113 42.1137 212.286 42.3602C212.459 42.6067 212.566 42.9086 212.612 43.2598H211.041C210.968 42.9271 210.808 42.6991 210.548 42.5882C210.289 42.4711 209.989 42.4156 209.656 42.4156C209.55 42.4156 209.423 42.4218 209.277 42.4403C209.13 42.4588 208.997 42.4896 208.864 42.5327C208.737 42.5759 208.631 42.6436 208.537 42.7299C208.451 42.8162 208.404 42.9271 208.404 43.0688C208.404 43.2414 208.471 43.3769 208.597 43.4817C208.724 43.5864 208.89 43.6727 209.097 43.7466C209.303 43.8144 209.536 43.8761 209.803 43.9253C210.069 43.9746 210.342 44.0301 210.622 44.0856C210.895 44.141 211.161 44.215 211.427 44.2951C211.694 44.3752 211.927 44.4861 212.133 44.6278C212.339 44.7696 212.506 44.9421 212.632 45.1516C212.759 45.3611 212.826 45.6261 212.826 45.9342C212.826 46.3101 212.732 46.6243 212.546 46.8893C212.359 47.1481 212.12 47.3638 211.827 47.524C211.534 47.6842 211.201 47.8074 210.841 47.8814C210.482 47.9553 210.122 47.9923 209.769 47.9923C209.336 47.9923 208.937 47.9492 208.571 47.8567C208.204 47.7643 207.885 47.6287 207.619 47.45C207.352 47.2652 207.139 47.0372 206.986 46.7661C206.833 46.4949 206.753 46.1683 206.74 45.7925H208.258V45.7801ZM213.225 41.4852H214.364V39.5873H215.869V41.4852H217.227V42.5266H215.869V45.9034C215.869 46.0513 215.875 46.1745 215.888 46.2854C215.902 46.3902 215.935 46.4826 215.982 46.5565C216.028 46.6305 216.102 46.686 216.201 46.7229C216.301 46.7599 216.428 46.7784 216.601 46.7784C216.708 46.7784 216.814 46.7784 216.921 46.7722C217.027 46.7661 217.134 46.7537 217.24 46.7291V47.8074C217.074 47.8259 216.907 47.8383 216.754 47.8567C216.594 47.8752 216.435 47.8814 216.268 47.8814C215.869 47.8814 215.549 47.8444 215.309 47.7766C215.069 47.7089 214.876 47.6041 214.743 47.4685C214.603 47.333 214.517 47.1666 214.464 46.9632C214.417 46.7599 214.384 46.5257 214.377 46.2669V42.5389H213.238V41.4852H213.225ZM218.292 41.4852H219.717V42.3417H219.744C219.957 41.972 220.25 41.7132 220.629 41.553C221.009 41.3927 221.415 41.3126 221.861 41.3126C222.401 41.3126 222.867 41.3989 223.266 41.5776C223.666 41.7501 223.999 41.9905 224.265 42.2986C224.531 42.6067 224.724 42.9641 224.858 43.3708C224.991 43.7775 225.057 44.215 225.057 44.6771C225.057 45.1023 224.997 45.5152 224.878 45.9095C224.758 46.3101 224.578 46.6613 224.338 46.9694C224.099 47.2775 223.792 47.5178 223.419 47.7027C223.046 47.8876 222.614 47.98 222.108 47.98C221.888 47.98 221.668 47.9615 221.448 47.9245C221.229 47.8876 221.016 47.8259 220.816 47.7458C220.616 47.6657 220.423 47.561 220.257 47.4316C220.083 47.3022 219.944 47.1543 219.824 46.9879H219.797V50.1429H218.292V41.4852V41.4852ZM223.553 44.6525C223.553 44.369 223.513 44.0917 223.433 43.8206C223.353 43.5495 223.233 43.3153 223.073 43.1058C222.913 42.8963 222.714 42.7299 222.481 42.6067C222.241 42.4834 221.968 42.4156 221.661 42.4156C221.029 42.4156 220.55 42.619 220.23 43.0257C219.91 43.4324 219.75 43.9746 219.75 44.6525C219.75 44.9729 219.79 45.2687 219.877 45.5398C219.964 45.8109 220.083 46.0451 220.257 46.2423C220.423 46.4395 220.623 46.5935 220.856 46.7044C221.089 46.8215 221.362 46.877 221.668 46.877C222.014 46.877 222.301 46.8092 222.54 46.6798C222.78 46.5504 222.973 46.3778 223.126 46.1745C223.28 45.965 223.393 45.7308 223.459 45.4659C223.519 45.2009 223.553 44.9298 223.553 44.6525V44.6525ZM226.209 39.0758H227.714V40.3945H226.209V39.0758ZM226.209 41.4852H227.714V47.8074H226.209V41.4852ZM229.059 39.0758H230.564V47.8074H229.059V39.0758ZM235.178 47.98C234.632 47.98 234.146 47.8937 233.72 47.7273C233.294 47.561 232.934 47.3268 232.635 47.0372C232.342 46.7414 232.115 46.3902 231.962 45.9835C231.809 45.5768 231.729 45.127 231.729 44.6401C231.729 44.1595 231.809 43.7158 231.962 43.3091C232.115 42.9024 232.342 42.5512 232.635 42.2554C232.928 41.9597 233.294 41.7317 233.72 41.5653C234.146 41.3989 234.632 41.3126 235.178 41.3126C235.724 41.3126 236.211 41.3989 236.637 41.5653C237.063 41.7317 237.422 41.9658 237.722 42.2554C238.015 42.5512 238.241 42.9024 238.395 43.3091C238.548 43.7158 238.628 44.1595 238.628 44.6401C238.628 45.127 238.548 45.5768 238.395 45.9835C238.241 46.3902 238.015 46.7414 237.722 47.0372C237.429 47.333 237.063 47.561 236.637 47.7273C236.211 47.8937 235.724 47.98 235.178 47.98V47.98ZM235.178 46.877C235.511 46.877 235.804 46.8092 236.051 46.6798C236.297 46.5504 236.497 46.3778 236.657 46.1683C236.816 45.9588 236.93 45.7185 237.01 45.4535C237.083 45.1886 237.123 44.9174 237.123 44.6401C237.123 44.369 237.083 44.104 237.01 43.8329C236.936 43.5618 236.816 43.3276 236.657 43.1181C236.497 42.9086 236.297 42.7422 236.051 42.6128C235.804 42.4834 235.511 42.4156 235.178 42.4156C234.846 42.4156 234.553 42.4834 234.306 42.6128C234.06 42.7422 233.86 42.9148 233.7 43.1181C233.54 43.3276 233.427 43.5618 233.347 43.8329C233.274 44.104 233.234 44.369 233.234 44.6401C233.234 44.9174 233.274 45.1886 233.347 45.4535C233.421 45.7185 233.54 45.9588 233.7 46.1683C233.86 46.3778 234.06 46.5504 234.306 46.6798C234.553 46.8154 234.846 46.877 235.178 46.877V46.877ZM239.067 41.4852H240.206V39.5873H241.711V41.4852H243.069V42.5266H241.711V45.9034C241.711 46.0513 241.717 46.1745 241.73 46.2854C241.744 46.3902 241.777 46.4826 241.824 46.5565C241.87 46.6305 241.944 46.686 242.043 46.7229C242.143 46.7599 242.27 46.7784 242.443 46.7784C242.55 46.7784 242.656 46.7784 242.763 46.7722C242.869 46.7661 242.976 46.7537 243.082 46.7291V47.8074C242.916 47.8259 242.749 47.8383 242.596 47.8567C242.436 47.8752 242.277 47.8814 242.11 47.8814C241.711 47.8814 241.391 47.8444 241.151 47.7766C240.911 47.7089 240.718 47.6041 240.585 47.4685C240.445 47.333 240.359 47.1666 240.306 46.9632C240.259 46.7599 240.226 46.5257 240.219 46.2669V42.5389H239.08V41.4852H239.067Z" fill="white"/>
    <path d="M185.706 39.0758H178.808L176.677 33L174.54 39.0758L167.642 39.0696L173.228 42.8285L171.091 48.8981L176.677 45.1454L182.257 48.8981L180.126 42.8285L185.706 39.0758Z" fill="#00B67A"/>
    <path d="M0.212891 37.4336H2.5625C3.62109 37.4336 4.39844 37.6133 4.89453 37.9727C5.39062 38.332 5.63867 38.875 5.63867 39.6016C5.63867 40.0977 5.48633 40.5117 5.18164 40.8438C4.88086 41.1719 4.43945 41.3828 3.85742 41.4766V41.5117C4.54102 41.6133 5.04297 41.8301 5.36328 42.1621C5.6875 42.4902 5.84961 42.9492 5.84961 43.5391C5.84961 44.3281 5.58789 44.9355 5.06445 45.3613C4.54102 45.7871 3.79883 46 2.83789 46H0.212891V37.4336ZM0.810547 41.248H2.69727C3.50195 41.248 4.08594 41.1152 4.44922 40.8496C4.81641 40.5801 5 40.1602 5 39.5898C5 39.0195 4.79297 38.6055 4.37891 38.3477C3.96875 38.0898 3.35547 37.9609 2.53906 37.9609H0.810547V41.248ZM0.810547 41.7754V45.4727H2.82617C4.41211 45.4727 5.20508 44.8281 5.20508 43.5391C5.20508 42.3633 4.36914 41.7754 2.69727 41.7754H0.810547ZM11.217 46L11.0705 44.9922H11.0237C10.7034 45.4023 10.3733 45.6934 10.0334 45.8652C9.6975 46.0332 9.29906 46.1172 8.83813 46.1172C8.21313 46.1172 7.7268 45.957 7.37914 45.6367C7.03148 45.3164 6.85766 44.873 6.85766 44.3066C6.85766 43.6855 7.11547 43.2031 7.63109 42.8594C8.15063 42.5156 8.90063 42.334 9.88109 42.3145L11.094 42.2793V41.8574C11.094 41.252 10.9709 40.7949 10.7248 40.4863C10.4788 40.1777 10.0823 40.0234 9.53539 40.0234C8.94555 40.0234 8.33422 40.1875 7.70141 40.5156L7.48461 40.0117C8.18383 39.6836 8.87523 39.5195 9.55883 39.5195C10.258 39.5195 10.7795 39.7012 11.1233 40.0645C11.4709 40.4277 11.6448 40.9941 11.6448 41.7637V46H11.217ZM8.87328 45.5898C9.55297 45.5898 10.0881 45.3965 10.4788 45.0098C10.8733 44.6191 11.0705 44.0781 11.0705 43.3867V42.7598L9.95727 42.8066C9.06273 42.8496 8.42406 42.9902 8.04125 43.2285C7.66234 43.4629 7.47289 43.8301 7.47289 44.3301C7.47289 44.7285 7.59398 45.0391 7.83617 45.2617C8.08227 45.4805 8.42797 45.5898 8.87328 45.5898ZM17.4223 44.3418C17.4223 44.9121 17.2055 45.3516 16.772 45.6602C16.3384 45.9648 15.7231 46.1172 14.9263 46.1172C14.0747 46.1172 13.3989 45.9863 12.8989 45.7246V45.0977C13.5395 45.418 14.2153 45.5781 14.9263 45.5781C15.5552 45.5781 16.0317 45.4746 16.3559 45.2676C16.6841 45.0566 16.8481 44.7773 16.8481 44.4297C16.8481 44.1094 16.7173 43.8398 16.4555 43.6211C16.1977 43.4023 15.772 43.1875 15.1782 42.9766C14.5415 42.7461 14.0942 42.5488 13.8364 42.3848C13.5786 42.2168 13.3833 42.0293 13.2505 41.8223C13.1216 41.6113 13.0571 41.3555 13.0571 41.0547C13.0571 40.5781 13.2563 40.2012 13.6548 39.9238C14.0571 39.6465 14.6177 39.5078 15.3364 39.5078C16.0239 39.5078 16.6763 39.6367 17.2934 39.8945L17.0766 40.4219C16.4516 40.1641 15.8716 40.0352 15.3364 40.0352C14.8169 40.0352 14.4048 40.1211 14.1001 40.293C13.7954 40.4648 13.643 40.7031 13.643 41.0078C13.643 41.3398 13.7602 41.6055 13.9946 41.8047C14.2329 42.0039 14.6958 42.2266 15.3833 42.4727C15.9575 42.6797 16.3755 42.8672 16.6372 43.0352C16.8989 43.1992 17.0942 43.3867 17.2231 43.5977C17.3559 43.8086 17.4223 44.0566 17.4223 44.3418ZM21.3952 46.1172C20.4695 46.1172 19.7468 45.832 19.2273 45.2617C18.7116 44.6914 18.4538 43.8926 18.4538 42.8652C18.4538 41.8496 18.7038 41.0371 19.2038 40.4277C19.7038 39.8145 20.3777 39.5078 21.2253 39.5078C21.9753 39.5078 22.5671 39.7695 23.0007 40.293C23.4343 40.8164 23.6511 41.5273 23.6511 42.4258V42.8945H19.0632C19.071 43.7695 19.2741 44.4375 19.6726 44.8984C20.0749 45.3594 20.6491 45.5898 21.3952 45.5898C21.7585 45.5898 22.0769 45.5645 22.3503 45.5137C22.6277 45.4629 22.9773 45.3535 23.3991 45.1855V45.7129C23.0398 45.8691 22.7077 45.9746 22.403 46.0293C22.0984 46.0879 21.7624 46.1172 21.3952 46.1172ZM21.2253 40.0234C20.612 40.0234 20.1198 40.2266 19.7488 40.6328C19.3777 41.0352 19.1609 41.6172 19.0984 42.3789H23.0359C23.0359 41.6406 22.8757 41.0645 22.5554 40.6504C22.2351 40.2324 21.7917 40.0234 21.2253 40.0234ZM27.5009 39.5078C27.9619 39.5078 28.3603 39.5918 28.6963 39.7598C29.0322 39.9277 29.333 40.2148 29.5986 40.6211H29.6338C29.6103 40.1289 29.5986 39.6465 29.5986 39.1738V36.8828H30.1728V46H29.792L29.6455 45.0273H29.5986C29.1142 45.7539 28.4189 46.1172 27.5127 46.1172C26.6338 46.1172 25.9619 45.8438 25.497 45.2969C25.0322 44.75 24.7998 43.9531 24.7998 42.9062C24.7998 41.8047 25.0302 40.9629 25.4912 40.3809C25.9521 39.7988 26.622 39.5078 27.5009 39.5078ZM27.5009 40.0352C26.8056 40.0352 26.2822 40.2793 25.9306 40.7676C25.583 41.2559 25.4091 41.9648 25.4091 42.8945C25.4091 44.6992 26.1103 45.6016 27.5127 45.6016C28.2314 45.6016 28.7588 45.3926 29.0947 44.9746C29.4306 44.5566 29.5986 43.8672 29.5986 42.9062V42.8066C29.5986 41.8223 29.4326 41.1152 29.1005 40.6855C28.7724 40.252 28.2392 40.0352 27.5009 40.0352ZM40.2221 42.8066C40.2221 43.8457 39.9702 44.6582 39.4663 45.2441C38.9623 45.8262 38.267 46.1172 37.3803 46.1172C36.8217 46.1172 36.3295 45.9824 35.9038 45.7129C35.478 45.4434 35.1518 45.0566 34.9252 44.5527C34.6987 44.0488 34.5854 43.4668 34.5854 42.8066C34.5854 41.7676 34.8373 40.959 35.3413 40.3809C35.8452 39.7988 36.5366 39.5078 37.4155 39.5078C38.2905 39.5078 38.976 39.8027 39.4721 40.3926C39.9721 40.9785 40.2221 41.7832 40.2221 42.8066ZM35.1948 42.8066C35.1948 43.6816 35.3862 44.3652 35.769 44.8574C36.1557 45.3457 36.7006 45.5898 37.4038 45.5898C38.1069 45.5898 38.6498 45.3457 39.0327 44.8574C39.4194 44.3652 39.6127 43.6816 39.6127 42.8066C39.6127 41.9277 39.4174 41.2461 39.0268 40.7617C38.6401 40.2773 38.0952 40.0352 37.392 40.0352C36.6889 40.0352 36.1459 40.2773 35.7631 40.7617C35.3842 41.2422 35.1948 41.9238 35.1948 42.8066ZM46.1872 46V41.8691C46.1872 41.2285 46.0524 40.7637 45.7829 40.4746C45.5134 40.1816 45.0954 40.0352 44.529 40.0352C43.7673 40.0352 43.2087 40.2285 42.8532 40.6152C42.5016 40.998 42.3259 41.6211 42.3259 42.4844V46H41.7458V39.6309H42.238L42.3493 40.5039H42.3845C42.7985 39.8398 43.5348 39.5078 44.5934 39.5078C46.0387 39.5078 46.7614 40.2832 46.7614 41.834V46H46.1872ZM56.8634 46H50.8752V44.7402L53.0255 42.5664C53.6623 41.9141 54.0783 41.4629 54.2736 41.2129C54.4689 40.959 54.6095 40.7246 54.6955 40.5098C54.7814 40.2949 54.8244 40.0723 54.8244 39.8418C54.8244 39.498 54.7287 39.2422 54.5373 39.0742C54.3498 38.9062 54.0978 38.8223 53.7814 38.8223C53.4494 38.8223 53.1271 38.8984 52.8146 39.0508C52.5021 39.2031 52.1759 39.4199 51.8361 39.7012L50.8517 38.5352C51.2736 38.1758 51.6232 37.9219 51.9005 37.7734C52.1779 37.625 52.4806 37.5117 52.8088 37.4336C53.1369 37.3516 53.5041 37.3105 53.9103 37.3105C54.4455 37.3105 54.9181 37.4082 55.3283 37.6035C55.7384 37.7988 56.0568 38.0723 56.2834 38.4238C56.5099 38.7754 56.6232 39.1777 56.6232 39.6309C56.6232 40.0254 56.5529 40.3965 56.4123 40.7441C56.2755 41.0879 56.0607 41.4414 55.7677 41.8047C55.4787 42.168 54.967 42.6855 54.2326 43.3574L53.131 44.3945V44.4766H56.8634V46ZM60.6078 40.5273C61.4359 40.5273 62.0941 40.7598 62.5824 41.2246C63.0746 41.6895 63.3207 42.3262 63.3207 43.1348C63.3207 44.0918 63.0258 44.8281 62.4359 45.3438C61.8461 45.8594 61.0023 46.1172 59.9047 46.1172C58.9516 46.1172 58.182 45.9629 57.5961 45.6543V44.0898C57.9047 44.2539 58.2641 44.3887 58.6742 44.4941C59.0844 44.5957 59.473 44.6465 59.8402 44.6465C60.9457 44.6465 61.4984 44.1934 61.4984 43.2871C61.4984 42.4238 60.9262 41.9922 59.7816 41.9922C59.5746 41.9922 59.3461 42.0137 59.0961 42.0566C58.8461 42.0957 58.643 42.1387 58.4867 42.1855L57.766 41.7988L58.0883 37.4336H62.7348V38.9688H59.6762L59.518 40.6504L59.723 40.6094C59.9613 40.5547 60.2562 40.5273 60.6078 40.5273ZM70.0475 41.7168C70.0475 43.2129 69.8014 44.3203 69.3092 45.0391C68.8209 45.7578 68.067 46.1172 67.0475 46.1172C66.0592 46.1172 65.3131 45.7461 64.8092 45.0039C64.3092 44.2617 64.0592 43.166 64.0592 41.7168C64.0592 40.2051 64.3034 39.0918 64.7916 38.377C65.2799 37.6582 66.0319 37.2988 67.0475 37.2988C68.0358 37.2988 68.7819 37.6738 69.2858 38.4238C69.7936 39.1738 70.0475 40.2715 70.0475 41.7168ZM65.858 41.7168C65.858 42.7676 65.9479 43.5215 66.1276 43.9785C66.3112 44.4316 66.6178 44.6582 67.0475 44.6582C67.4694 44.6582 67.7741 44.4277 67.9616 43.9668C68.1491 43.5059 68.2428 42.7559 68.2428 41.7168C68.2428 40.666 68.1471 39.9121 67.9557 39.4551C67.7682 38.9941 67.4655 38.7637 67.0475 38.7637C66.6217 38.7637 66.317 38.9941 66.1334 39.4551C65.9498 39.9121 65.858 40.666 65.858 41.7168ZM72.8954 42.4375L73.6747 41.4414L75.5087 39.4492H77.5243L74.9227 42.291L77.6825 46H75.62L73.7333 43.3457L72.9657 43.9609V46H71.1786V36.8828H72.9657V40.9492L72.872 42.4375H72.8954ZM80.2257 42.4141H77.9581V41.1309H80.2257V38.8457H81.5089V41.1309H83.7765V42.4141H81.5089V44.6699H80.2257V42.4141ZM91.5289 39.3262C91.7711 39.3262 91.9723 39.3438 92.1324 39.3789L91.9977 41.0547C91.8531 41.0156 91.6773 40.9961 91.4703 40.9961C90.9 40.9961 90.4547 41.1426 90.1344 41.4355C89.818 41.7285 89.6598 42.1387 89.6598 42.666V46H87.8727V39.4492H89.2262L89.4898 40.5508H89.5777C89.7809 40.1836 90.0543 39.8887 90.398 39.666C90.7457 39.4395 91.1227 39.3262 91.5289 39.3262ZM95.7948 40.5977C95.4159 40.5977 95.119 40.7188 94.9041 40.9609C94.6893 41.1992 94.5663 41.5391 94.535 41.9805H97.0428C97.035 41.5391 96.9198 41.1992 96.6971 40.9609C96.4745 40.7188 96.1737 40.5977 95.7948 40.5977ZM96.0467 46.1172C94.992 46.1172 94.1678 45.8262 93.5741 45.2441C92.9803 44.6621 92.6834 43.8379 92.6834 42.7715C92.6834 41.6738 92.9569 40.8262 93.5038 40.2285C94.0545 39.627 94.8143 39.3262 95.7831 39.3262C96.7088 39.3262 97.4295 39.5898 97.9452 40.1172C98.4608 40.6445 98.7186 41.373 98.7186 42.3027V43.1699H94.494C94.5135 43.6777 94.6639 44.0742 94.9452 44.3594C95.2264 44.6445 95.6209 44.7871 96.1288 44.7871C96.5233 44.7871 96.8963 44.7461 97.2479 44.6641C97.5995 44.582 97.9666 44.4512 98.3495 44.2715V45.6543C98.037 45.8105 97.703 45.9258 97.3475 46C96.992 46.0781 96.5584 46.1172 96.0467 46.1172ZM101.49 46L98.9942 39.4492H100.863L102.129 43.1816C102.27 43.6543 102.357 44.1016 102.393 44.5234H102.428C102.447 44.1484 102.535 43.7012 102.691 43.1816L103.951 39.4492H105.82L103.324 46H101.49ZM106.448 37.7559C106.448 37.1738 106.772 36.8828 107.42 36.8828C108.069 36.8828 108.393 37.1738 108.393 37.7559C108.393 38.0332 108.311 38.25 108.147 38.4062C107.987 38.5586 107.744 38.6348 107.42 38.6348C106.772 38.6348 106.448 38.3418 106.448 37.7559ZM108.311 46H106.524V39.4492H108.311V46ZM112.665 40.5977C112.286 40.5977 111.989 40.7188 111.774 40.9609C111.559 41.1992 111.436 41.5391 111.405 41.9805H113.913C113.905 41.5391 113.79 41.1992 113.567 40.9609C113.344 40.7188 113.044 40.5977 112.665 40.5977ZM112.917 46.1172C111.862 46.1172 111.038 45.8262 110.444 45.2441C109.85 44.6621 109.553 43.8379 109.553 42.7715C109.553 41.6738 109.827 40.8262 110.374 40.2285C110.924 39.627 111.684 39.3262 112.653 39.3262C113.579 39.3262 114.299 39.5898 114.815 40.1172C115.331 40.6445 115.588 41.373 115.588 42.3027V43.1699H111.364C111.383 43.6777 111.534 44.0742 111.815 44.3594C112.096 44.6445 112.491 44.7871 112.999 44.7871C113.393 44.7871 113.766 44.7461 114.118 44.6641C114.469 44.582 114.836 44.4512 115.219 44.2715V45.6543C114.907 45.8105 114.573 45.9258 114.217 46C113.862 46.0781 113.428 46.1172 112.917 46.1172ZM122.186 46L121.682 43.709L121.003 40.8145H120.962L119.766 46H117.845L115.981 39.4492H117.762L118.518 42.3496C118.639 42.8691 118.762 43.5859 118.887 44.5H118.923C118.938 44.2031 119.007 43.7324 119.128 43.0879L119.221 42.5898L120.03 39.4492H121.999L122.766 42.5898C122.782 42.6758 122.805 42.8027 122.837 42.9707C122.872 43.1387 122.905 43.3184 122.936 43.5098C122.968 43.6973 122.995 43.8828 123.018 44.0664C123.046 44.2461 123.061 44.3906 123.065 44.5H123.1C123.136 44.2188 123.198 43.834 123.288 43.3457C123.378 42.8535 123.442 42.5215 123.481 42.3496L124.266 39.4492H126.018L124.132 46H122.186ZM131.409 44.0547C131.409 44.7266 131.175 45.2383 130.706 45.5898C130.241 45.9414 129.544 46.1172 128.614 46.1172C128.138 46.1172 127.731 46.084 127.396 46.0176C127.06 45.9551 126.745 45.8613 126.452 45.7363V44.2598C126.784 44.416 127.157 44.5469 127.571 44.6523C127.989 44.7578 128.356 44.8105 128.673 44.8105C129.321 44.8105 129.646 44.623 129.646 44.248C129.646 44.1074 129.603 43.9941 129.517 43.9082C129.431 43.8184 129.282 43.7188 129.071 43.6094C128.86 43.4961 128.579 43.3652 128.228 43.2168C127.724 43.0059 127.353 42.8105 127.114 42.6309C126.88 42.4512 126.708 42.2461 126.599 42.0156C126.493 41.7812 126.44 41.4941 126.44 41.1543C126.44 40.5723 126.665 40.123 127.114 39.8066C127.567 39.4863 128.208 39.3262 129.036 39.3262C129.825 39.3262 130.593 39.498 131.339 39.8418L130.8 41.1309C130.472 40.9902 130.165 40.875 129.88 40.7852C129.595 40.6953 129.304 40.6504 129.007 40.6504C128.48 40.6504 128.216 40.793 128.216 41.0781C128.216 41.2383 128.3 41.377 128.468 41.4941C128.64 41.6113 129.013 41.7852 129.587 42.0156C130.099 42.2227 130.474 42.416 130.712 42.5957C130.95 42.7754 131.126 42.9824 131.239 43.2168C131.353 43.4512 131.409 43.7305 131.409 44.0547ZM140.837 42.8066C140.837 43.8457 140.585 44.6582 140.082 45.2441C139.578 45.8262 138.882 46.1172 137.996 46.1172C137.437 46.1172 136.945 45.9824 136.519 45.7129C136.093 45.4434 135.767 45.0566 135.541 44.5527C135.314 44.0488 135.201 43.4668 135.201 42.8066C135.201 41.7676 135.453 40.959 135.957 40.3809C136.46 39.7988 137.152 39.5078 138.031 39.5078C138.906 39.5078 139.591 39.8027 140.087 40.3926C140.587 40.9785 140.837 41.7832 140.837 42.8066ZM135.81 42.8066C135.81 43.6816 136.001 44.3652 136.384 44.8574C136.771 45.3457 137.316 45.5898 138.019 45.5898C138.722 45.5898 139.265 45.3457 139.648 44.8574C140.035 44.3652 140.228 43.6816 140.228 42.8066C140.228 41.9277 140.033 41.2461 139.642 40.7617C139.255 40.2773 138.71 40.0352 138.007 40.0352C137.304 40.0352 136.761 40.2773 136.378 40.7617C136 41.2422 135.81 41.9238 135.81 42.8066ZM146.803 46V41.8691C146.803 41.2285 146.668 40.7637 146.398 40.4746C146.129 40.1816 145.711 40.0352 145.144 40.0352C144.383 40.0352 143.824 40.2285 143.469 40.6152C143.117 40.998 142.941 41.6211 142.941 42.4844V46H142.361V39.6309H142.853L142.965 40.5039H143C143.414 39.8398 144.15 39.5078 145.209 39.5078C146.654 39.5078 147.377 40.2832 147.377 41.834V46H146.803Z" fill="white"/>
    <path d="M50.3947 47.2012H131.626V47.7988H50.3947V47.2012Z" fill="white"/>
</svg>
