<svg width="22" height="22" viewBox="0 0 22 22" fill="none" xmlns="http://www.w3.org/2000/svg">
<path d="M10.74 16.75H16.66C16.57 16.83 16.48 16.9 16.39 16.98L12.12 20.18C10.71 21.23 8.41001 21.23 6.99001 20.18L2.71001 16.98C1.77001 16.28 1 14.73 1 13.56V6.14998C1 4.92998 1.93001 3.57998 3.07001 3.14998L8.05 1.27999C8.87 0.969985 10.23 0.969985 11.05 1.27999L16.02 3.14998C16.97 3.50998 17.78 4.50999 18.03 5.52999H10.73C10.51 5.52999 10.31 5.54 10.12 5.54C8.27 5.65 7.78999 6.31998 7.78999 8.42998V13.86C7.79999 16.16 8.39001 16.75 10.74 16.75Z" stroke="#212427" stroke-width="1.5" stroke-linecap="round" stroke-linejoin="round"/>
<path d="M7.7998 10.22H20.9998" stroke="#0AA7AD" stroke-width="1.5" stroke-miterlimit="10" stroke-linecap="round" stroke-linejoin="round"/>
<path d="M20.9998 8.42001V13.97C20.9798 16.19 20.3698 16.74 18.0598 16.74H10.7398C8.38981 16.74 7.7998 16.15 7.7998 13.84V8.41C7.7998 6.31 8.27981 5.63999 10.1298 5.51999C10.3198 5.51999 10.5198 5.51001 10.7398 5.51001H18.0598C20.4098 5.52001 20.9998 6.10001 20.9998 8.42001Z" stroke="#0AA7AD" stroke-width="1.5" stroke-linecap="round" stroke-linejoin="round"/>
<path d="M10.3198 14.26H11.6498" stroke="#0AA7AD" stroke-width="1.5" stroke-miterlimit="10" stroke-linecap="round" stroke-linejoin="round"/>
<path d="M13.75 14.26H17.02" stroke="#0AA7AD" stroke-width="1.5" stroke-miterlimit="10" stroke-linecap="round" stroke-linejoin="round"/>
</svg>
