<svg width="13" height="22" viewBox="0 0 13 22" fill="none" xmlns="http://www.w3.org/2000/svg">
<path d="M10.0822 1.4486L10.0822 1.44859C10.3261 1.20464 10.722 1.20464 10.966 1.44859L12.0287 2.51125C12.2723 2.75489 12.2728 3.14966 12.0296 3.39415L4.80957 10.6475L4.45847 11.0002L4.80955 11.3529L12.0292 18.6068L12.0293 18.6069C12.2725 18.8511 12.2721 19.2457 12.0282 19.4896L10.9655 20.5523C10.7216 20.7962 10.3257 20.7962 10.0817 20.5523L0.972039 11.4421L0.97203 11.4421C0.728077 11.1982 0.728074 10.8022 0.972021 10.5583C0.972024 10.5583 0.972026 10.5583 0.97203 10.5583L10.0822 1.4486Z" fill="#522367" stroke="#522367"/>
</svg>
