<svg width="148" height="16" viewBox="0 0 148 16" fill="none" xmlns="http://www.w3.org/2000/svg">
<path d="M15 0.235138H0V15.0587H15V0.235138Z" fill="#00B67A"/>
<path d="M31.25 0.235138H16.25V15.0587H31.25V0.235138Z" fill="#00B67A"/>
<path d="M47.5 0.235138H32.5V15.0587H47.5V0.235138Z" fill="#00B67A"/>
<path d="M63.75 0.235138H48.75V15.0587H63.75V0.235138Z" fill="#00B67A"/>
<path d="M80 0.235138H72.5V15.0587H80V0.235138Z" fill="#DCDCE6"/>
<path d="M72.5 0.235138H65V15.0587H72.5V0.235138Z" fill="#00B67A"/>
<path d="M7.5 10.2256L9.78125 9.65425L10.7344 12.5572L7.5 10.2256ZM12.75 6.47337H8.73438L7.5 2.7366L6.26562 6.47337H2.25L5.5 8.78954L4.26562 12.5263L7.51562 10.2101L9.51562 8.78954L12.75 6.47337Z" fill="white"/>
<path d="M23.75 10.2256L26.0313 9.65425L26.9844 12.5572L23.75 10.2256ZM29 6.47337H24.9844L23.75 2.7366L22.5156 6.47337H18.5L21.75 8.78954L20.5156 12.5263L23.7656 10.2101L25.7656 8.78954L29 6.47337Z" fill="white"/>
<path d="M40 10.2256L42.2813 9.65425L43.2344 12.5572L40 10.2256ZM45.25 6.47337H41.2344L40 2.7366L38.7656 6.47337H34.75L38 8.78954L36.7656 12.5263L40.0156 10.2101L42.0156 8.78954L45.25 6.47337Z" fill="white"/>
<path d="M56.25 10.2256L58.5313 9.65425L59.4844 12.5572L56.25 10.2256ZM61.5 6.47337H57.4844L56.25 2.7366L55.0156 6.47337H51L54.25 8.78954L53.0156 12.5263L56.2656 10.2101L58.2656 8.78954L61.5 6.47337Z" fill="white"/>
<path d="M72.5 10.2256L74.7813 9.65425L75.7344 12.5572L72.5 10.2256ZM77.75 6.47337H73.7344L72.5 2.7366L71.2656 6.47337H67.25L70.5 8.78954L69.2656 12.5263L72.5156 10.2101L74.5156 8.78954L77.75 6.47337Z" fill="white"/>
<path d="M103.768 5.48892H109.843V6.62919H107.454V13.0392H106.141V6.62919H103.763V5.48892H103.768ZM109.584 7.57232H110.707V8.62733H110.728C110.765 8.47814 110.834 8.33427 110.934 8.19573C111.035 8.0572 111.157 7.92399 111.3 7.81209C111.443 7.69487 111.602 7.60429 111.776 7.52969C111.951 7.46042 112.131 7.42312 112.311 7.42312C112.449 7.42312 112.55 7.42845 112.603 7.43378C112.656 7.43911 112.709 7.44976 112.767 7.45509V8.61668C112.682 8.60069 112.597 8.59003 112.507 8.57938C112.417 8.56872 112.333 8.56339 112.248 8.56339C112.047 8.56339 111.856 8.60602 111.676 8.68595C111.496 8.76587 111.342 8.88842 111.21 9.04295C111.077 9.2028 110.971 9.39462 110.892 9.62907C110.813 9.86352 110.775 10.1299 110.775 10.4337V13.0339H109.578V7.57232H109.584ZM118.27 13.0392H117.094V12.2773H117.073C116.925 12.5543 116.708 12.7728 116.416 12.938C116.125 13.1032 115.828 13.1884 115.526 13.1884C114.811 13.1884 114.292 13.0126 113.975 12.6556C113.657 12.2986 113.498 11.7604 113.498 11.0411V7.57232H114.695V10.9239C114.695 11.4034 114.785 11.7444 114.97 11.9416C115.15 12.1387 115.41 12.24 115.738 12.24C115.993 12.24 116.199 12.2027 116.369 12.1227C116.538 12.0428 116.676 11.9416 116.776 11.8084C116.882 11.6805 116.957 11.5206 117.004 11.3395C117.052 11.1583 117.073 10.9612 117.073 10.748V7.57764H118.27V13.0392ZM120.309 11.2862C120.346 11.6379 120.479 11.883 120.707 12.0268C120.94 12.1654 121.215 12.24 121.538 12.24C121.649 12.24 121.776 12.2293 121.92 12.2133C122.063 12.1973 122.2 12.16 122.322 12.1121C122.449 12.0641 122.55 11.9895 122.635 11.8936C122.714 11.7977 122.751 11.6752 122.746 11.5206C122.74 11.3661 122.682 11.2382 122.576 11.1423C122.47 11.0411 122.338 10.9665 122.174 10.9025C122.01 10.8439 121.824 10.7907 121.612 10.748C121.4 10.7054 121.189 10.6574 120.971 10.6095C120.749 10.5615 120.532 10.4976 120.325 10.4283C120.119 10.3591 119.933 10.2631 119.769 10.1406C119.605 10.0234 119.472 9.86884 119.377 9.68235C119.276 9.49586 119.229 9.26674 119.229 8.98966C119.229 8.69127 119.303 8.44617 119.446 8.24369C119.589 8.04121 119.774 7.88136 119.992 7.75881C120.214 7.63626 120.458 7.551 120.728 7.49772C120.998 7.44976 121.257 7.42312 121.501 7.42312C121.782 7.42312 122.052 7.45509 122.306 7.5137C122.56 7.57232 122.793 7.66823 123 7.80676C123.207 7.93997 123.376 8.11581 123.514 8.32894C123.651 8.54208 123.736 8.80317 123.773 9.10689H122.523C122.465 8.81915 122.338 8.622 122.131 8.52609C121.925 8.42486 121.686 8.3769 121.422 8.3769C121.337 8.3769 121.236 8.38223 121.12 8.39821C121.003 8.4142 120.897 8.44084 120.791 8.47814C120.691 8.51544 120.606 8.57405 120.532 8.64865C120.463 8.72324 120.426 8.81915 120.426 8.94171C120.426 9.0909 120.479 9.20813 120.579 9.29871C120.68 9.38929 120.813 9.46389 120.977 9.52783C121.141 9.58644 121.326 9.63972 121.538 9.68235C121.75 9.72498 121.967 9.77293 122.19 9.82089C122.407 9.86884 122.619 9.93278 122.831 10.0021C123.042 10.0713 123.228 10.1672 123.392 10.2898C123.556 10.4123 123.689 10.5615 123.789 10.7427C123.89 10.9239 123.943 11.153 123.943 11.4194C123.943 11.7444 123.869 12.0162 123.72 12.2453C123.572 12.4691 123.381 12.6556 123.148 12.7941C122.915 12.9327 122.65 13.0392 122.364 13.1032C122.078 13.1671 121.792 13.1991 121.512 13.1991C121.167 13.1991 120.85 13.1618 120.558 13.0819C120.267 13.0019 120.013 12.8847 119.801 12.7302C119.589 12.5703 119.42 12.3732 119.298 12.1387C119.176 11.9043 119.112 11.6219 119.102 11.2968H120.309V11.2862ZM124.261 7.57232H125.166V5.93118H126.363V7.57232H127.444V8.47281H126.363V11.3928C126.363 11.5206 126.369 11.6272 126.379 11.7231C126.39 11.8137 126.416 11.8936 126.453 11.9576C126.49 12.0215 126.549 12.0695 126.628 12.1014C126.708 12.1334 126.808 12.1494 126.946 12.1494C127.031 12.1494 127.115 12.1494 127.2 12.1441C127.285 12.1387 127.37 12.1281 127.454 12.1068V13.0392C127.322 13.0552 127.19 13.0659 127.068 13.0819C126.941 13.0978 126.814 13.1032 126.681 13.1032C126.363 13.1032 126.109 13.0712 125.918 13.0126C125.728 12.954 125.574 12.8634 125.468 12.7462C125.357 12.6289 125.288 12.4851 125.246 12.3092C125.209 12.1334 125.182 11.9309 125.177 11.7071V8.48347H124.271V7.57232H124.261ZM128.291 7.57232H129.425V8.31296H129.446C129.615 7.99326 129.849 7.76947 130.15 7.63093C130.452 7.49239 130.775 7.42312 131.13 7.42312C131.559 7.42312 131.93 7.49772 132.248 7.65224C132.566 7.80144 132.831 8.00924 133.042 8.27566C133.254 8.54208 133.408 8.85112 133.514 9.2028C133.62 9.55447 133.673 9.93278 133.673 10.3324C133.673 10.7001 133.625 11.0571 133.53 11.3981C133.434 11.7444 133.291 12.0481 133.101 12.3146C132.91 12.581 132.666 12.7888 132.37 12.9486C132.073 13.1085 131.729 13.1884 131.326 13.1884C131.151 13.1884 130.977 13.1724 130.802 13.1405C130.627 13.1085 130.458 13.0552 130.299 12.9859C130.14 12.9167 129.986 12.8261 129.854 12.7142C129.716 12.6023 129.605 12.4744 129.51 12.3306H129.488V15.0587H128.291V7.57232V7.57232ZM132.476 10.3111C132.476 10.066 132.444 9.82622 132.38 9.59177C132.317 9.35732 132.221 9.15484 132.094 8.97368C131.967 8.79251 131.808 8.64865 131.623 8.54208C131.432 8.43551 131.215 8.3769 130.971 8.3769C130.468 8.3769 130.087 8.55274 129.833 8.90441C129.578 9.25608 129.451 9.72498 129.451 10.3111C129.451 10.5882 129.483 10.8439 129.552 11.0784C129.621 11.3128 129.716 11.5153 129.854 11.6858C129.986 11.8563 130.145 11.9895 130.331 12.0854C130.516 12.1867 130.733 12.2346 130.977 12.2346C131.252 12.2346 131.48 12.176 131.671 12.0641C131.861 11.9522 132.015 11.803 132.137 11.6272C132.258 11.446 132.349 11.2436 132.401 11.0144C132.449 10.7853 132.476 10.5509 132.476 10.3111V10.3111ZM134.589 5.48892H135.786V6.62919H134.589V5.48892ZM134.589 7.57232H135.786V13.0392H134.589V7.57232ZM136.856 5.48892H138.053V13.0392H136.856V5.48892ZM141.724 13.1884C141.289 13.1884 140.903 13.1138 140.564 12.97C140.225 12.8261 139.939 12.6236 139.7 12.3732C139.467 12.1174 139.287 11.8137 139.165 11.462C139.043 11.1104 138.98 10.7214 138.98 10.3004C138.98 9.88483 139.043 9.50119 139.165 9.14951C139.287 8.79784 139.467 8.49412 139.7 8.23836C139.933 7.9826 140.225 7.78545 140.564 7.64158C140.903 7.49772 141.289 7.42312 141.724 7.42312C142.158 7.42312 142.544 7.49772 142.883 7.64158C143.222 7.78545 143.508 7.98793 143.747 8.23836C143.98 8.49412 144.16 8.79784 144.282 9.14951C144.404 9.50119 144.467 9.88483 144.467 10.3004C144.467 10.7214 144.404 11.1104 144.282 11.462C144.16 11.8137 143.98 12.1174 143.747 12.3732C143.514 12.6289 143.222 12.8261 142.883 12.97C142.544 13.1138 142.158 13.1884 141.724 13.1884V13.1884ZM141.724 12.2346C141.988 12.2346 142.221 12.176 142.417 12.0641C142.613 11.9522 142.772 11.803 142.899 11.6219C143.026 11.4407 143.117 11.2329 143.18 11.0038C143.238 10.7747 143.27 10.5402 143.27 10.3004C143.27 10.066 143.238 9.83687 143.18 9.60243C143.122 9.36798 143.026 9.1655 142.899 8.98433C142.772 8.80317 142.613 8.6593 142.417 8.54741C142.221 8.43551 141.988 8.3769 141.724 8.3769C141.459 8.3769 141.226 8.43551 141.03 8.54741C140.834 8.6593 140.675 8.8085 140.548 8.98433C140.421 9.1655 140.331 9.36798 140.267 9.60243C140.209 9.83687 140.177 10.066 140.177 10.3004C140.177 10.5402 140.209 10.7747 140.267 11.0038C140.325 11.2329 140.421 11.4407 140.548 11.6219C140.675 11.803 140.834 11.9522 141.03 12.0641C141.226 12.1814 141.459 12.2346 141.724 12.2346V12.2346ZM144.817 7.57232H145.722V5.93118H146.92V7.57232H148V8.47281H146.92V11.3928C146.92 11.5206 146.925 11.6272 146.935 11.7231C146.946 11.8137 146.972 11.8936 147.01 11.9576C147.047 12.0215 147.105 12.0695 147.184 12.1014C147.264 12.1334 147.364 12.1494 147.502 12.1494C147.587 12.1494 147.672 12.1494 147.756 12.1441C147.841 12.1387 147.926 12.1281 148.011 12.1068V13.0392C147.878 13.0552 147.746 13.0659 147.624 13.0819C147.497 13.0978 147.37 13.1032 147.237 13.1032C146.92 13.1032 146.665 13.0712 146.475 13.0126C146.284 12.954 146.13 12.8634 146.024 12.7462C145.913 12.6289 145.844 12.4851 145.802 12.3092C145.765 12.1334 145.738 11.9309 145.733 11.7071V8.48347H144.827V7.57232H144.817Z" fill="white"/>
<path d="M102.37 5.48891H96.8824L95.1875 0.235138L93.4873 5.48891L88 5.48358L92.4439 8.73389L90.7436 13.9823L95.1875 10.7374L99.6261 13.9823L97.9311 8.73389L102.37 5.48891Z" fill="#00B67A"/>
<path d="M98.3125 9.92211L97.9311 8.73389L95.1875 10.7374L98.3125 9.92211Z" fill="#005128"/>
</svg>
