<svg width="28" height="25" viewBox="0 0 28 25" fill="none" xmlns="http://www.w3.org/2000/svg">
<path d="M1 4.47205H27C27.5523 4.47205 28 4.02714 28 3.47826V0.993789C28 0.444907 27.5523 0 27 0H1C0.447688 0 0 0.444907 0 0.993789V3.47826C0 4.02714 0.447688 4.47205 1 4.47205ZM1 14.4099H27C27.5523 14.4099 28 13.965 28 13.4161V10.9317C28 10.3828 27.5523 9.93789 27 9.93789H1C0.447688 9.93789 0 10.3828 0 10.9317V13.4161C0 13.965 0.447688 14.4099 1 14.4099ZM1 24.3478H27C27.5523 24.3478 28 23.9029 28 23.354V20.8696C28 20.3207 27.5523 19.8758 27 19.8758H1C0.447688 19.8758 0 20.3207 0 20.8696V23.354C0 23.9029 0.447688 24.3478 1 24.3478Z" fill="white"/>
</svg>
