<svg width="19" height="19" viewBox="0 0 19 19" xmlns="http://www.w3.org/2000/svg"><title>calendar</title><g fill="#6F2C91" fill-rule="evenodd"><path d="M5.998 3.993L6 0H4.008l.008 4 1.982-.007zM14.998 3.993L15 0h-1.992l.008 4 1.982-.007z"/><path d="M16.023 2.004v3l-4.02.01.005-3-4.998-.03V5.01l-4.004.002-.004-3H.004L0 19h19l-.034-16.986-2.943-.01zM1.005 18.016l.005-11.01 16.996.002-.004 11.004-16.997.004z"/><path d="M17 17v-2h-3v2h3zM13 17v-2h-3v2h3zM9 17v-2H6v2h3zM5 17v-2H2v2h3zM17 14v-2h-3v2h3zM13 14v-2h-3v2h3zM9 14v-2H6v2h3zM5 14v-2H2v2h3zM17 11V9h-3v2h3zM13 11V9h-3v2h3zM9 11V9H6v2h3z"/></g></svg>