<svg width="133" height="24" viewBox="0 0 133 24" fill="none" xmlns="http://www.w3.org/2000/svg">
    <path d="M22.5985 3.35156H12.9766V20.648H22.5985V3.35156Z" fill="#FF5F00"/>
    <path d="M13.588 12C13.5865 10.3342 13.9639 8.68995 14.6915 7.19163C15.4192 5.69332 16.4781 4.38024 17.788 3.35181C16.1658 2.0763 14.2176 1.28309 12.1661 1.06282C10.1145 0.842557 8.04237 1.20412 6.18653 2.1062C4.33068 3.00827 2.76599 4.41447 1.67131 6.16405C0.576617 7.91363 -0.00390625 9.93599 -0.00390625 12C-0.00390625 14.064 0.576617 16.0864 1.67131 17.836C2.76599 19.5855 4.33068 20.9917 6.18653 21.8938C8.04237 22.7959 10.1145 23.1574 12.1661 22.9372C14.2176 22.7169 16.1658 21.9237 17.788 20.6482C16.4781 19.6198 15.4192 18.3067 14.6915 16.8084C13.9639 15.31 13.5865 13.6658 13.588 12V12Z" fill="#EB001B"/>
    <path d="M35.5795 12C35.5796 14.064 34.9991 16.0863 33.9045 17.8359C32.8098 19.5855 31.2452 20.9917 29.3894 21.8938C27.5336 22.7959 25.4615 23.1575 23.41 22.9372C21.3584 22.7169 19.4102 21.9237 17.7881 20.6482C19.0969 19.6187 20.155 18.3054 20.8825 16.8074C21.61 15.3093 21.9881 13.6655 21.9881 12C21.9881 10.3345 21.61 8.69074 20.8825 7.19266C20.155 5.69458 19.0969 4.38129 17.7881 3.35181C19.4102 2.07631 21.3584 1.28309 23.41 1.06282C25.4615 0.842557 27.5336 1.20413 29.3894 2.10622C31.2452 3.00831 32.8098 4.41451 33.9045 6.16409C34.9991 7.91367 35.5796 9.93603 35.5795 12V12Z" fill="#F79E1B"/>
    <path d="M46.7792 23.0617H46.3721V19.3502V11.9264V4.5026V0.791016H46.7792V8.21449V15.6383V23.0617Z" fill="white"/>
    <path d="M58.049 18.8166H56.9062V5.69817H58.049V18.8166ZM66.3859 5.69817C67.3883 5.68384 68.3859 5.83905 69.3366 6.15725C70.1628 6.43495 70.9221 6.88174 71.5661 7.46914C72.1835 8.04556 72.6664 8.75098 72.9803 9.53522C73.6426 11.2895 73.6426 13.2251 72.9803 14.9794C72.6664 15.7637 72.1835 16.4692 71.5661 17.0457C70.9221 17.6331 70.1628 18.0799 69.3366 18.3575C68.3859 18.6758 67.3883 18.831 66.3859 18.8166H61.5991V5.69817H66.3859ZM62.7419 6.78507V17.7297H66.3859C67.2449 17.745 68.1003 17.6134 68.9151 17.3408C69.6011 17.1084 70.23 16.7331 70.7604 16.2399C71.2642 15.7586 71.6518 15.169 71.8939 14.5156C72.4058 13.0536 72.4058 11.461 71.8939 9.99909C71.6511 9.34476 71.2636 8.75379 70.7604 8.27034C70.2316 7.7749 69.6022 7.39934 68.9151 7.16927C68.0996 6.89991 67.2446 6.77003 66.3859 6.78508L62.7419 6.78507ZM86.7596 5.54823C87.3085 5.54672 87.8556 5.60961 88.3898 5.73562C88.9012 5.8558 89.3964 6.03666 89.8649 6.27437C90.3148 6.50245 90.7336 6.78747 91.1109 7.12241C91.4795 7.45022 91.7996 7.82885 92.0615 8.24691L91.1061 8.88399C90.8815 8.54058 90.6122 8.22865 90.3052 7.95643C89.9951 7.68091 89.6521 7.44483 89.2841 7.25356C88.9041 7.05683 88.5015 6.90736 88.0852 6.80851C87.651 6.70469 87.206 6.65281 86.7596 6.65394C86.0146 6.64739 85.2752 6.78415 84.5817 7.05677C83.9264 7.31506 83.3304 7.70405 82.8301 8.20007C82.3253 8.70609 81.9272 9.3083 81.6593 9.97104C81.091 11.4423 81.091 13.0725 81.6593 14.5438C81.9272 15.2065 82.3253 15.8088 82.8301 16.3147C83.3304 16.8108 83.9264 17.1997 84.5817 17.4579C85.2751 17.7307 86.0145 17.8675 86.7596 17.8609C87.2042 17.8622 87.6475 17.8118 88.0805 17.7109C88.4954 17.6146 88.8967 17.4667 89.2749 17.2705C89.6429 17.0794 89.9859 16.8433 90.2959 16.5678C90.6045 16.2936 90.874 15.9782 91.0969 15.6307L92.0335 16.3147C91.7608 16.7247 91.4347 17.0965 91.064 17.4204C90.6878 17.7484 90.2725 18.0285 89.8276 18.2545C89.3652 18.4891 88.8761 18.6668 88.371 18.7838C86.9462 19.1083 85.4568 18.999 84.0946 18.4699C83.2994 18.1557 82.5749 17.6858 81.9636 17.0877C81.3554 16.4844 80.8758 15.764 80.5538 14.97C79.8733 13.2273 79.8733 11.2922 80.5538 9.54942C80.8751 8.75365 81.3547 8.03153 81.9636 7.42693C82.5749 6.82895 83.2994 6.35905 84.0946 6.04477C84.9426 5.70874 85.8475 5.54013 86.7596 5.54823H86.7596ZM95.5743 11.5264C95.7417 11.2483 95.9483 10.9958 96.1879 10.7768C96.4165 10.5683 96.6735 10.3932 96.9512 10.2567C97.2255 10.1227 97.5148 10.022 97.813 9.95699C98.1084 9.89183 98.4099 9.85882 98.7124 9.85852C99.2257 9.8526 99.7362 9.93662 100.221 10.1068C100.656 10.2603 101.056 10.501 101.396 10.8143C101.728 11.127 101.988 11.5094 102.155 11.934C102.338 12.4041 102.429 12.9053 102.422 13.4099V18.8166H101.354V13.7379C101.36 13.3304 101.296 12.9248 101.167 12.5384C101.052 12.1995 100.863 11.8906 100.614 11.6343C100.362 11.3824 100.059 11.1889 99.7242 11.0673C99.3395 10.9303 98.9333 10.8636 98.525 10.8705C98.1296 10.8674 97.7372 10.939 97.3682 11.0813C97.0187 11.2158 96.7 11.4198 96.4316 11.6811C96.1625 11.9453 95.9491 12.2607 95.804 12.6087C95.6476 12.984 95.5694 13.3874 95.5743 13.794V18.8166H94.5064V5.32324H95.5743L95.5743 11.5264ZM108.773 9.85853C109.335 9.85351 109.892 9.96687 110.407 10.1912C110.901 10.4066 111.345 10.7225 111.71 11.1188C112.086 11.5342 112.38 12.0176 112.576 12.5432C112.793 13.123 112.904 13.7372 112.904 14.3564C112.904 14.4375 112.902 14.5142 112.899 14.5859C112.896 14.6578 112.891 14.7281 112.885 14.7968H105.494C105.522 15.2702 105.638 15.7342 105.836 16.1648C106.015 16.5493 106.269 16.8948 106.581 17.1814C106.887 17.4596 107.245 17.6746 107.635 17.814C108.042 17.9595 108.472 18.0324 108.904 18.0295C109.475 18.0394 110.041 17.9242 110.562 17.6921C111.052 17.4652 111.499 17.1544 111.883 16.7738L112.454 17.5047C112.194 17.7687 111.907 18.0043 111.597 18.2076C111.318 18.3895 111.019 18.5403 110.707 18.6573C110.409 18.7686 110.1 18.8471 109.785 18.8915C109.471 18.9353 109.155 18.9573 108.839 18.9572C108.229 18.9635 107.625 18.8505 107.059 18.6244C106.531 18.4134 106.053 18.096 105.654 17.6921C105.253 17.2817 104.941 16.7939 104.736 16.2585C104.511 15.6693 104.4 15.043 104.408 14.4125C104.401 13.7863 104.514 13.1646 104.74 12.5806C104.948 12.0437 105.26 11.5532 105.658 11.1376C106.052 10.7326 106.523 10.4121 107.045 10.1959C107.592 9.96831 108.18 9.85357 108.773 9.85853H108.773ZM108.754 10.8049C108.333 10.7997 107.914 10.8777 107.522 11.0345C107.159 11.1827 106.826 11.399 106.544 11.6717C106.257 11.9507 106.024 12.2792 105.855 12.6415C105.673 13.0318 105.557 13.4499 105.513 13.8785H111.818C111.786 13.447 111.681 13.0239 111.508 12.6275C111.351 12.2657 111.127 11.9367 110.848 11.6577C110.572 11.3842 110.246 11.168 109.886 11.0217C109.527 10.8753 109.142 10.8016 108.754 10.8049V10.8049ZM119.049 9.85853C119.673 9.85252 120.293 9.972 120.871 10.2099C121.418 10.4359 121.906 10.7836 122.299 11.2267L121.606 11.9482C121.273 11.612 120.881 11.3403 120.449 11.147C119.998 10.9518 119.512 10.8543 119.021 10.8611C118.559 10.8573 118.101 10.9482 117.676 11.1282C117.27 11.3001 116.902 11.5519 116.594 11.8685C116.283 12.192 116.04 12.5742 115.878 12.9929C115.534 13.9081 115.534 14.9168 115.878 15.8321C116.036 16.247 116.278 16.6253 116.587 16.9442C116.896 17.2631 117.267 17.516 117.676 17.6875C118.101 17.8675 118.559 17.9584 119.021 17.9546C119.519 17.9601 120.013 17.8578 120.468 17.6547C120.9 17.4601 121.295 17.1905 121.634 16.8583L122.299 17.5892C121.903 18.0303 121.413 18.3776 120.866 18.6058C119.698 19.0727 118.396 19.0743 117.227 18.6104C116.691 18.3927 116.206 18.0682 115.8 17.6566C115.394 17.245 115.076 16.7549 114.866 16.2164C114.423 15.0531 114.423 13.7673 114.866 12.604C115.075 12.0643 115.393 11.5731 115.798 11.1606C116.204 10.748 116.69 10.4229 117.227 10.2052C117.805 9.96922 118.424 9.85133 119.049 9.85853H119.049ZM125.512 13.7192H126.945L130.654 9.99908H132.003L127.807 14.1596L132.078 18.8166H130.72L126.945 14.6843H125.512V18.8166H124.444V5.32324H125.512V13.7192Z" fill="white"/>
</svg>
