<?xml version="1.0" encoding="utf-8"?>
<!-- Generator: Adobe Illustrator 19.1.1, SVG Export Plug-In . SVG Version: 6.00 Build 0)  -->
<svg version="1.1" id="Capa_1" xmlns="http://www.w3.org/2000/svg" xmlns:xlink="http://www.w3.org/1999/xlink" x="0px" y="0px"
	 viewBox="-41 314.8 902.8 229" style="enable-background:new -41 314.8 902.8 229;" xml:space="preserve">
<style type="text/css">
	.st0{fill:#60267D;}
	.st1{fill:#60267D;stroke:#60267D;stroke-width:2;stroke-miterlimit:10;}
</style>
<g>
	<path class="st0" d="M73.5,314.8C10.4,314.8-41,366.1-41,429.3c0,63.1,51.4,114.5,114.5,114.5S188,492.4,188,429.3
		C188,366.1,136.6,314.8,73.5,314.8z M139.2,441.4c0,3.3-2.6,5.9-5.9,5.9H13c-3.3,0-5.9-2.6-5.9-5.9v-23.6c0-3.3,2.6-5.9,5.9-5.9
		h120.3c3.3,0,5.9,2.6,5.9,5.9V441.4z"/>
</g>
<g>
	<path class="st1" d="M245.6,493V370.6h54.3c10.9,0,19.2,1.1,24.9,3.3c5.7,2.2,10.2,6.1,13.6,11.6c3.4,5.6,5.1,11.7,5.1,18.5
		c0,8.7-2.8,16-8.4,22c-5.6,6-14.3,9.7-26.1,11.4c4.3,2.1,7.5,4.1,9.8,6.1c4.7,4.3,9.2,9.8,13.4,16.3l21.3,33.3h-20.4l-16.2-25.5
		c-4.7-7.3-8.6-13-11.7-16.9c-3.1-3.9-5.8-6.6-8.2-8.2c-2.4-1.6-4.9-2.6-7.4-3.3c-1.8-0.4-4.8-0.6-9-0.6h-18.8V493H245.6z
		 M261.8,424.6h34.8c7.4,0,13.2-0.8,17.4-2.3c4.2-1.5,7.3-4,9.5-7.3c2.2-3.4,3.3-7,3.3-11c0-5.8-2.1-10.5-6.3-14.3
		c-4.2-3.7-10.8-5.6-19.9-5.6h-38.7V424.6z"/>
	<path class="st1" d="M427.6,464.4l15.5,1.9c-2.5,9.1-7,16.1-13.6,21.1c-6.6,5-15.1,7.5-25.4,7.5c-13,0-23.3-4-30.9-12
		c-7.6-8-11.4-19.2-11.4-33.6c0-14.9,3.8-26.5,11.5-34.7c7.7-8.2,17.6-12.4,29.9-12.4c11.9,0,21.5,4,29.1,12.1
		c7.5,8.1,11.3,19.4,11.3,34.1c0,0.9,0,2.2-0.1,4h-66.1c0.6,9.7,3.3,17.2,8.3,22.4c5,5.2,11.1,7.8,18.5,7.8c5.5,0,10.2-1.4,14.1-4.3
		C422.2,475.4,425.3,470.8,427.6,464.4z M378.2,440.1h49.5c-0.7-7.5-2.6-13.1-5.7-16.8c-4.8-5.8-11-8.7-18.6-8.7
		c-6.9,0-12.7,2.3-17.4,6.9C381.3,426.2,378.7,432.4,378.2,440.1z"/>
	<path class="st1" d="M462,493v-88.7h13.4v12.4c2.8-4.3,6.5-7.8,11.1-10.5c4.6-2.6,9.9-4,15.8-4c6.6,0,12,1.4,16.2,4.1
		c4.2,2.7,7.2,6.5,8.9,11.4c7-10.4,16.1-15.5,27.4-15.5c8.8,0,15.6,2.4,20.3,7.3c4.7,4.9,7.1,12.4,7.1,22.5V493h-14.9v-55.9
		c0-6-0.5-10.3-1.5-13c-1-2.6-2.7-4.8-5.3-6.4c-2.6-1.6-5.6-2.4-9-2.4c-6.2,0-11.4,2.1-15.5,6.2c-4.1,4.1-6.2,10.8-6.2,19.9V493h-15
		v-57.6c0-6.7-1.2-11.7-3.7-15c-2.5-3.3-6.5-5-12-5c-4.2,0-8.1,1.1-11.7,3.3c-3.6,2.2-6.2,5.5-7.8,9.8c-1.6,4.3-2.4,10.5-2.4,18.5
		v46H462z"/>
	<path class="st1" d="M598.8,448.7c0-16.4,4.6-28.6,13.7-36.5c7.6-6.6,16.9-9.9,27.9-9.9c12.2,0,22.2,4,29.9,12
		c7.7,8,11.6,19,11.6,33.1c0,11.4-1.7,20.4-5.1,26.9c-3.4,6.5-8.4,11.6-14.9,15.2c-6.5,3.6-13.7,5.4-21.4,5.4
		c-12.4,0-22.4-4-30.1-11.9C602.7,475.1,598.8,463.6,598.8,448.7z M614.3,448.7c0,11.4,2.5,19.9,7.4,25.5c5,5.7,11.2,8.5,18.7,8.5
		c7.5,0,13.7-2.8,18.6-8.5c5-5.7,7.4-14.3,7.4-26c0-11-2.5-19.3-7.5-24.9c-5-5.6-11.2-8.5-18.6-8.5c-7.5,0-13.7,2.8-18.7,8.4
		C616.8,428.8,614.3,437.3,614.3,448.7z"/>
	<path class="st1" d="M724.2,493l-33.7-88.7h15.9l19,53.1c2.1,5.7,4,11.7,5.7,17.9c1.3-4.7,3.2-10.3,5.6-16.9l19.7-54.1h15.4
		L738.2,493H724.2z"/>
	<path class="st1" d="M845.7,464.4l15.5,1.9c-2.5,9.1-7,16.1-13.6,21.1c-6.6,5-15.1,7.5-25.4,7.5c-13,0-23.3-4-30.9-12
		c-7.6-8-11.4-19.2-11.4-33.6c0-14.9,3.8-26.5,11.5-34.7c7.7-8.2,17.6-12.4,29.9-12.4c11.9,0,21.5,4,29.1,12.1
		c7.5,8.1,11.3,19.4,11.3,34.1c0,0.9,0,2.2-0.1,4h-66.1c0.6,9.7,3.3,17.2,8.3,22.4c5,5.2,11.1,7.8,18.5,7.8c5.5,0,10.2-1.4,14.1-4.3
		C840.4,475.4,843.5,470.8,845.7,464.4z M796.4,440.1h49.5c-0.7-7.5-2.6-13.1-5.7-16.8c-4.8-5.8-11-8.7-18.6-8.7
		c-6.9,0-12.7,2.3-17.4,6.9C799.5,426.2,796.9,432.4,796.4,440.1z"/>
</g>
</svg>
