<svg width="286" height="41" viewBox="0 0 286 41" fill="none" xmlns="http://www.w3.org/2000/svg">
<path d="M11.4272 13.5541C7.38559 11.7085 5.3288 10.2757 5.3288 7.34773C5.3288 5.0797 6.92182 2.78097 10.4881 2.78097C14.5505 2.78097 15.9748 5.6572 16.8189 8.48175V8.58513L18.5814 8.33798V8.2144C18.402 6.9568 18.2441 5.91567 18.1068 5.00781C17.9415 3.87702 17.801 2.94574 17.6935 2.12108V2.02819H17.6108C15.5566 1.41119 13.4273 1.06459 11.2793 0.997559C5.18083 0.997559 0.896952 4.29622 0.896952 9.00756C0.896952 13.8732 5.66609 16.1105 9.15883 17.7397C12.6516 19.3688 15.3102 20.9462 15.3102 24.0284C15.3102 27.1106 13.1997 28.9974 9.74991 28.9974C4.47401 28.9974 2.36349 24.0284 1.741 21.905V21.7814L0 22.1933V22.3064C0.276576 24.6373 0.724416 26.9458 1.34005 29.2139V29.2672H1.40536L1.70049 29.3908C2.43173 29.7101 3.18639 29.9755 3.95816 30.1848C5.53718 30.6446 7.17476 30.8841 8.82237 30.8963C15.3218 30.8963 20.0496 27.298 20.0496 22.3702C20.0496 17.4424 15.2804 15.2778 11.452 13.5557" fill="white"/>
<path d="M33.0465 27.2136C32.1405 27.6164 31.1606 27.8362 30.1655 27.8597C28.9205 27.8597 27.454 27.1691 27.454 23.8907V12.9245H32.4447C32.6208 12.8338 32.7722 12.7031 32.8859 12.5435C32.9997 12.3838 33.0726 12.1998 33.0986 12.0069C33.1261 11.8219 33.1106 11.6332 33.0534 11.4548C32.9961 11.2764 32.8986 11.1129 32.7679 10.9763H27.4325V4.89347L26.5777 4.73193L22.8535 7.8214V10.9141H20.743L19.3186 12.3373L19.6352 12.9762H22.8742V25.3785C22.8742 28.8839 24.6573 30.7287 28.055 30.7287C28.7741 30.6756 29.4743 30.4791 30.1126 30.1512L33.7632 28.5842L33.2358 27.1619L33.0465 27.2136Z" fill="white"/>
<path d="M42.5859 21.4924L43.7432 21.0078C44.6608 20.6266 45.7793 20.1621 46.5076 19.8326V26.4097C45.5283 27.1867 44.3265 27.6478 43.0678 27.7295C42.6379 27.7409 42.2101 27.6665 41.8106 27.511C41.4111 27.3554 41.0482 27.122 40.7441 26.8248C40.44 26.5277 40.201 26.1731 40.0418 25.7828C39.8826 25.3924 39.8065 24.9745 39.8181 24.5544C39.8181 22.9875 40.873 22.2452 42.5826 21.4617M54.3057 26.9776L54.1793 27.0494C53.6715 27.3195 53.104 27.4645 52.5259 27.4719C51.4711 27.4719 50.9428 26.606 50.9428 25.0286V17.1131C50.9428 14.4226 50.2567 12.7628 48.6281 11.5561C47.3804 10.7434 45.907 10.3257 44.4079 10.3598C41.7538 10.9816 39.2227 12.0265 36.9165 13.4525C35.8616 14.0987 35.2284 14.6585 35.2284 15.391C35.3183 15.9613 35.6128 16.4817 36.0592 16.8595C36.5056 17.2372 37.0749 17.4476 37.6654 17.4531C38.0473 17.4884 38.4293 17.3879 38.7414 17.1701C39.0534 16.9522 39.2746 16.6317 39.3643 16.2674C39.5779 15.2116 40.041 14.2192 40.7167 13.3694C40.9778 13.1082 41.2922 12.9035 41.6393 12.7686C41.9865 12.6336 42.3588 12.5714 42.7322 12.5859C45.0957 12.5859 46.5093 14.3491 46.5093 17.2867V18.0476C45.2957 18.8932 41.4864 20.1096 38.965 20.8616C36.2212 21.7275 34.9448 23.1232 34.9448 25.2531C34.9825 26.0114 35.1731 26.7549 35.5058 27.441C35.8384 28.127 36.3065 28.7421 36.8832 29.2509C37.4598 29.7597 38.1337 30.1521 38.8661 30.4057C39.5984 30.6593 40.3748 30.769 41.1507 30.7285C42.4065 30.7285 44.4327 29.4709 46.2158 28.3676L46.7226 28.0445C46.9455 28.735 47.3436 29.3591 47.8799 29.8586C48.5897 30.4113 49.4629 30.7256 50.3699 30.7552L54.8646 28.3943L54.3057 26.9776Z" fill="white"/>
<path d="M82.8831 18.3789C80.9206 17.6576 78.9051 16.6674 78.9051 14.8016C78.9015 14.4276 78.9766 14.057 79.1256 13.7126C79.2746 13.3681 79.4944 13.0573 79.7714 12.7992C80.0484 12.5412 80.3766 12.3414 80.7359 12.2124C81.0951 12.0833 81.4776 12.0277 81.8597 12.0489C84.6034 12.0489 86.0807 14.3791 86.7875 16.3168V16.4299L88.3491 16.0689V15.9558C88.132 14.3526 87.7792 12.7697 87.2943 11.2234V11.1717C85.8613 10.6175 84.3297 10.3475 82.7889 10.3778C78.3148 10.3778 75.0544 12.8518 75.0544 16.2538C75.0544 19.8828 78.8216 21.4086 81.3116 22.4392C84.0446 23.532 85.1102 24.5942 85.1102 26.1918C85.0943 26.5887 84.9968 26.9785 84.8234 27.3378C84.6501 27.6971 84.4045 28.0187 84.1012 28.2832C83.7979 28.5478 83.4432 28.75 83.0583 28.8778C82.6733 29.0055 82.2659 29.0562 81.8605 29.0269C78.7579 29.0269 76.7111 26.1191 75.9084 23.6249V23.5215L74.3674 23.7275V23.8406C74.39 25.6616 74.6741 27.4705 75.2115 29.2142C76.959 30.207 78.9515 30.7131 80.9726 30.6778C85.13 30.6778 89.3403 28.5543 89.3403 24.4924C89.3403 21.3173 86.7974 19.7269 83.0096 18.307" fill="white"/>
<path d="M110.328 25.1623V10.5542L109.821 10.635C109.03 10.7585 107.932 10.9338 106.656 11.0162C105.22 11.1777 103.49 11.3151 102.15 11.3562H102.02V12.6486L103.846 12.9272C105.312 13.1744 105.702 13.34 105.702 15.587V25.7398C104.382 26.9184 102.668 27.5889 100.88 27.6266C99.0335 27.6266 96.8494 26.8189 96.8494 23.0082V17.0594C96.8494 14.2139 96.8494 12.1518 96.9974 10.719V10.5574L96.6072 10.6196C95.7417 10.7432 94.4231 10.9427 93.1674 11.0631H92.6714C91.5 11.1761 90.3922 11.29 89.4423 11.3207H89.3721V12.5888L90.7964 12.8772C91.9464 13.1146 92.3159 13.2996 92.3159 15.4957V24.1139C92.3159 28.289 94.5951 30.6814 98.5731 30.6814C99.965 30.6434 101.322 30.2488 102.509 29.5369C103.611 28.9593 104.669 28.3047 105.674 27.5782V30.3922L106.117 30.7323H106.181C107.162 30.4746 108.502 30.1548 109.8 29.8559C111.351 29.5159 112.649 29.2905 113.663 29.1653H113.778V27.7292H112.385C110.623 27.6056 110.275 27.3787 110.275 25.2035" fill="white"/>
<path d="M131.579 12.7505C131.482 12.0421 131.108 11.3978 130.536 10.9522C129.964 10.5066 129.238 10.294 128.509 10.3589C126.673 10.3589 124.711 11.8742 122.706 14.8643V10.2144L122.526 10.2765C120.184 11.0972 117.763 11.681 115.299 12.0188H115.193V13.2869H115.299C117.884 13.6164 118.127 13.7303 118.127 16.3796V25.4824C118.127 28.2552 117.768 28.4515 114.961 28.7132H114.846V30.1259H126.769V28.8336H126.621C122.833 28.5654 122.727 28.3077 122.727 25.6027V17.6065C123.637 15.5444 125.027 14.2351 126.273 14.2351C126.664 14.2304 127.052 14.3018 127.414 14.4452C127.777 14.5886 128.106 14.8011 128.383 15.0703C128.585 15.23 128.83 15.3295 129.088 15.3569C129.346 15.3842 129.607 15.3383 129.839 15.2245C130.358 15.0354 130.808 14.6986 131.13 14.2577C131.451 13.8167 131.63 13.2918 131.644 12.7505" fill="white"/>
<path d="M142.921 17.2348C140.262 17.3277 137.729 17.3689 135.197 17.3689C135.858 14.2762 137.709 12.2141 139.935 12.2141C140.456 12.2092 140.972 12.3092 141.451 12.508C141.93 12.7067 142.363 12.9998 142.721 13.3691C143.123 13.7795 143.437 14.2647 143.644 14.796C143.851 15.3273 143.946 15.8938 143.924 16.4618C143.924 16.9771 143.786 17.2041 142.869 17.2041M147.448 25.2004C145.928 26.5102 143.977 27.2421 141.95 27.2624C138.521 27.2624 135.028 24.8191 134.88 19.376C140.502 19.2007 146.487 18.7678 147.353 18.6337C148.408 18.4892 148.651 17.9537 148.651 17.0773C148.651 13.4588 145.105 10.2837 141.064 10.2837H141.011C138.249 10.4059 135.64 11.5568 133.72 13.5C132.66 14.5073 131.82 15.7133 131.248 17.0457C130.677 18.3781 130.387 19.8094 130.396 21.2539C130.36 22.5078 130.588 23.7555 131.067 24.9196C131.545 26.0837 132.263 27.1393 133.176 28.021C134.089 28.9026 135.178 29.5915 136.375 30.0449C137.572 30.4982 138.852 30.7064 140.135 30.6564C140.873 30.6564 144.757 30.4505 148.365 26.3061L148.439 26.2254L147.553 25.0808L147.448 25.2004Z" fill="white"/>
<path d="M75.4541 12.3381V10.8843H66.3168V12.3381H66.4746C68.0363 12.5344 68.7431 12.7606 68.9969 13.1628C69.2506 13.565 69.1341 13.8639 68.8704 14.6062C67.8891 17.2869 66.0001 21.9773 64.6493 24.9157L60.4283 14.4963C60.1332 13.7541 60.0695 13.3518 60.2274 13.0837C60.3853 12.8155 60.9871 12.5578 62.2429 12.3624H62.3586L62.2544 10.8843H51.7026V12.3381H51.8184C54.3505 12.637 54.8044 13.1523 55.8278 15.4308C57.0521 17.9775 59.1196 22.8948 61.5154 28.9155C61.8019 29.518 61.836 30.2061 61.6104 30.833C61.2087 31.7732 60.7362 32.683 60.1968 33.5549C58.7461 36.1208 57.036 38.5382 55.092 40.771L54.8705 40.9979H59.7033V40.9171C60.4316 39.082 61.2649 37.2267 62.4256 34.6591C63.2274 32.8821 64.1244 30.8628 65.2536 28.3089L65.8323 26.9689C68.586 20.6906 69.979 17.4945 71.1289 15.4325C72.4375 13.0198 72.8699 12.7105 75.3499 12.3398L75.4541 12.3381Z" fill="white"/>
<path d="M154.264 13.266L153.958 10.9357L153.177 13.266H152.638L151.847 10.9357L151.552 13.266H150.993L151.436 10.4204H152.196L152.914 12.7094L153.62 10.4204H154.402L154.834 13.266H154.264ZM149.969 10.8121V13.266H149.399V10.8121H148.513V10.4204H150.887V10.8121H149.969Z" fill="white"/>
<path d="M177.85 30.3613H176.652L174.579 23.6405C174.483 23.3519 174.375 22.9617 174.255 22.4699C174.174 22.2013 174.111 21.9276 174.067 21.6507C173.948 22.3201 173.784 22.9812 173.576 23.6295L171.563 30.3155H170.36L167.628 20.2801H168.886L170.52 26.4762C170.725 27.248 170.889 28.0298 171.011 28.8183C171.13 27.9853 171.319 27.163 171.574 26.3597L173.408 20.259H174.678L176.608 26.4184C176.852 27.2051 177.04 28.0072 177.171 28.8192C177.296 28.0309 177.464 27.2502 177.674 26.4771L179.292 20.2948H180.563L177.85 30.3613Z" fill="white"/>
<path d="M188.668 26.5914C188.73 27.6315 188.388 28.656 187.71 29.4601C187.379 29.8095 186.974 30.0832 186.523 30.2615C186.072 30.4398 185.586 30.5182 185.1 30.4912C184.456 30.5046 183.821 30.3422 183.266 30.0224C182.739 29.6946 182.322 29.222 182.068 28.6638C181.769 28.0127 181.622 27.3049 181.637 26.5914C181.575 25.5544 181.909 24.5317 182.576 23.7227C182.909 23.377 183.316 23.1067 183.767 22.9308C184.219 22.7549 184.704 22.6776 185.189 22.7044C185.669 22.6837 186.147 22.7664 186.59 22.9465C187.033 23.1266 187.431 23.3997 187.754 23.7466C188.409 24.5512 188.735 25.5651 188.668 26.5914ZM182.796 26.5914C182.743 27.3659 182.953 28.136 183.395 28.7812C183.598 29.0351 183.861 29.2371 184.162 29.3697C184.463 29.5023 184.792 29.5617 185.121 29.5426C185.451 29.5611 185.78 29.5028 186.082 29.3725C186.384 29.2422 186.651 29.0436 186.859 28.7931C187.299 28.1428 187.51 27.3695 187.458 26.5914C187.509 25.8208 187.298 25.0554 186.859 24.4135C186.651 24.1602 186.383 23.9598 186.078 23.8293C185.774 23.6988 185.441 23.6421 185.11 23.664C184.783 23.6417 184.455 23.6968 184.155 23.8246C183.854 23.9523 183.59 24.149 183.384 24.3979C182.954 25.0474 182.756 25.8171 182.82 26.5877L182.796 26.5914Z" fill="white"/>
<path d="M194.222 22.7034C194.531 22.6982 194.841 22.7256 195.145 22.785L194.977 23.8391C194.702 23.7739 194.421 23.7385 194.138 23.7336C193.833 23.7321 193.531 23.7972 193.255 23.9242C192.979 24.0512 192.735 24.2368 192.542 24.4675C192.091 24.9816 191.852 25.6411 191.871 26.3179V30.3544H190.674V22.8318H191.633L191.764 24.2253C192.012 23.7625 192.365 23.3619 192.797 23.0547C193.221 22.7899 193.722 22.6666 194.224 22.7034H194.222Z" fill="white"/>
<path d="M199.063 29.5536C199.263 29.5719 199.463 29.5719 199.662 29.5536C199.817 29.5375 199.969 29.5068 200.118 29.4619V30.3398C199.942 30.4122 199.756 30.4595 199.567 30.4802C199.345 30.521 199.121 30.5406 198.895 30.5389C197.409 30.5389 196.666 29.7775 196.666 28.1968V23.7236H195.564V23.1732L196.666 22.7044L197.157 21.0999H197.829V22.8328H200.07V23.7227H197.829V28.1959C197.801 28.5722 197.921 28.9448 198.164 29.238C198.28 29.3526 198.421 29.4404 198.577 29.4951C198.732 29.5498 198.898 29.5701 199.062 29.5545L199.063 29.5536Z" fill="white"/>
<path d="M206.925 30.3625V25.4911C206.964 24.9976 206.81 24.5082 206.494 24.1214C206.316 23.9568 206.104 23.8308 205.872 23.7517C205.641 23.6727 205.395 23.6424 205.151 23.6627C204.825 23.637 204.498 23.6811 204.191 23.7921C203.885 23.903 203.607 24.078 203.377 24.3049C202.952 24.9293 202.757 25.677 202.826 26.4241V30.3588H201.628V19.6831H202.826V22.9151C202.828 23.2363 202.807 23.5572 202.764 23.8756H202.836C203.074 23.508 203.416 23.2153 203.819 23.0325C204.269 22.8143 204.767 22.7057 205.269 22.716C206.032 22.6612 206.788 22.8962 207.378 23.3719C207.638 23.6521 207.835 23.9823 207.957 24.3412C208.078 24.7001 208.122 25.0799 208.085 25.4562V30.3625H206.925Z" fill="white"/>
<path d="M219.459 29.3671C219.197 29.7476 218.838 30.0553 218.418 30.2605C217.998 30.4656 217.531 30.5611 217.062 30.5377C216.609 30.569 216.155 30.4937 215.738 30.3181C215.321 30.1425 214.953 29.8718 214.665 29.5285C214.052 28.6968 213.756 27.6823 213.826 26.6599C213.758 25.634 214.054 24.6164 214.665 23.7793C214.95 23.4314 215.317 23.1561 215.734 22.9767C216.151 22.7973 216.607 22.7192 217.062 22.749C217.53 22.7299 217.996 22.8272 218.415 23.032C218.835 23.2367 219.194 23.5422 219.459 23.9196H219.553V19.6831H220.751V30.3625H219.805L219.459 29.3671ZM217.122 29.5662C217.442 29.5954 217.764 29.5537 218.065 29.4443C218.366 29.3348 218.638 29.1604 218.86 28.9341C219.272 28.3301 219.462 27.6077 219.399 26.8846V26.6388C219.466 25.8399 219.273 25.0408 218.848 24.3554C218.632 24.1177 218.363 23.9326 218.061 23.8147C217.759 23.6969 217.434 23.6495 217.11 23.6765C216.801 23.6632 216.494 23.7284 216.219 23.8659C215.944 24.0034 215.71 24.2085 215.54 24.4609C215.142 25.1226 214.955 25.8847 215.001 26.6507C214.949 27.414 215.138 28.1746 215.543 28.8295C215.724 29.0683 215.964 29.2589 216.241 29.3837C216.517 29.5086 216.821 29.5637 217.125 29.5441L217.122 29.5662Z" fill="white"/>
<path d="M229.67 26.5923C229.737 27.631 229.399 28.6558 228.724 29.461C228.393 29.8106 227.988 30.0844 227.536 30.2625C227.084 30.4407 226.598 30.5188 226.112 30.4912C225.467 30.5064 224.832 30.344 224.278 30.0224C223.75 29.6946 223.334 29.222 223.08 28.6638C222.776 28.0137 222.625 27.3058 222.637 26.5914C222.576 25.5534 222.913 24.5307 223.583 23.7227C223.916 23.377 224.323 23.1067 224.774 22.9308C225.226 22.7549 225.711 22.6776 226.196 22.7044C226.676 22.6837 227.154 22.7664 227.597 22.9465C228.04 23.1266 228.437 23.3997 228.76 23.7466C229.414 24.552 229.739 25.5663 229.67 26.5923ZM223.81 26.5923C223.761 27.3648 223.967 28.1323 224.397 28.7821C224.602 29.037 224.867 29.2394 225.17 29.3721C225.473 29.5047 225.804 29.5635 226.135 29.5435C226.465 29.562 226.794 29.5037 227.097 29.3734C227.399 29.2431 227.665 29.0445 227.873 28.794C228.313 28.1437 228.524 27.3704 228.472 26.5923C228.523 25.8217 228.312 25.0563 227.873 24.4144C227.664 24.1615 227.396 23.9613 227.092 23.8309C226.787 23.7004 226.455 23.6435 226.123 23.6649C225.796 23.6426 225.468 23.6977 225.168 23.8255C224.868 23.9533 224.603 24.1499 224.397 24.3988C223.96 25.0455 223.753 25.8154 223.81 26.5886V26.5923Z" fill="white"/>
<path d="M231.625 20.795C231.616 20.692 231.627 20.5882 231.66 20.4897C231.692 20.3912 231.744 20.3001 231.813 20.2217C231.948 20.1041 232.123 20.0414 232.304 20.0464C232.394 20.0438 232.484 20.0586 232.568 20.0901C232.653 20.1216 232.73 20.1691 232.795 20.2299C232.867 20.305 232.922 20.3937 232.957 20.4904C232.992 20.5872 233.006 20.6899 232.999 20.7923C233.007 20.8964 232.993 21.001 232.958 21.0997C232.923 21.1983 232.868 21.2888 232.795 21.3657C232.73 21.4264 232.653 21.4739 232.568 21.5054C232.484 21.5369 232.394 21.5517 232.304 21.5491C232.214 21.5524 232.124 21.5378 232.039 21.5063C231.955 21.4748 231.878 21.4269 231.813 21.3657C231.743 21.2883 231.69 21.1977 231.658 21.0995C231.626 21.0013 231.615 20.8977 231.625 20.795ZM232.883 30.3616H231.685V22.8326H232.883V30.3616Z" fill="white"/>
<path d="M240.627 30.362V25.4906C240.666 24.9971 240.511 24.5077 240.195 24.121C240.017 23.9563 239.806 23.8303 239.574 23.7513C239.343 23.6722 239.097 23.6419 238.853 23.6623C238.528 23.6333 238.202 23.676 237.897 23.7872C237.592 23.8983 237.317 24.0751 237.091 24.3044C236.653 24.9202 236.453 25.6681 236.528 26.4144V30.3592H235.33V22.8329H236.288L236.468 23.8632H236.528C236.774 23.4909 237.123 23.1944 237.534 23.0082C237.983 22.7976 238.475 22.6932 238.973 22.7036C239.733 22.6443 240.487 22.8799 241.07 23.3595C241.326 23.6444 241.519 23.9773 241.639 24.3377C241.758 24.6981 241.801 25.0785 241.765 25.4558V30.362H240.627Z" fill="white"/>
<path d="M250.49 22.8326V23.5114L249.064 23.6757C249.209 23.87 249.326 24.0826 249.412 24.3077C249.519 24.5845 249.572 24.8787 249.567 25.1747C249.587 25.5248 249.522 25.8744 249.378 26.1957C249.235 26.517 249.016 26.801 248.74 27.025C248.138 27.4883 247.384 27.7215 246.619 27.681C246.402 27.6858 246.185 27.6661 245.972 27.6223C245.769 27.7025 245.593 27.8355 245.462 28.0067C245.331 28.178 245.251 28.381 245.229 28.5938C245.224 28.6868 245.247 28.7793 245.293 28.8605C245.34 28.9417 245.409 29.0083 245.493 29.0525C245.773 29.1701 246.077 29.2222 246.381 29.2048H247.747C248.427 29.1564 249.105 29.3385 249.664 29.7203C249.891 29.8963 250.071 30.1236 250.188 30.3828C250.305 30.6419 250.356 30.9249 250.335 31.2074C250.354 31.5852 250.27 31.9611 250.091 32.2964C249.912 32.6317 249.645 32.9145 249.317 33.1156C248.401 33.6065 247.363 33.8339 246.32 33.7715C245.507 33.8188 244.697 33.6271 243.996 33.2211C243.733 33.0557 243.52 32.8259 243.377 32.5546C243.234 32.2833 243.166 31.9801 243.181 31.6753C243.178 31.2454 243.335 30.8293 243.624 30.5047C243.962 30.1508 244.407 29.9127 244.894 29.8258C244.694 29.7378 244.521 29.6007 244.391 29.4277C244.262 29.2378 244.196 29.0134 244.203 28.7855C244.194 28.5307 244.269 28.2798 244.419 28.0709C244.616 27.8272 244.86 27.6242 245.138 27.4736C244.73 27.3091 244.386 27.0223 244.155 26.6544C243.906 26.2565 243.776 25.7982 243.78 25.3315C243.757 24.981 243.812 24.6298 243.942 24.3022C244.071 23.9747 244.272 23.6785 244.531 23.4344C245.14 22.9559 245.91 22.7177 246.69 22.7665C247.054 22.7637 247.417 22.8069 247.769 22.895L250.49 22.8326ZM244.344 31.6148C244.337 31.8029 244.383 31.9893 244.476 32.1542C244.568 32.3192 244.705 32.4564 244.872 32.5514C245.328 32.7786 245.834 32.8911 246.346 32.8789C247.098 32.9269 247.85 32.7818 248.527 32.4578C248.741 32.3425 248.92 32.173 249.044 31.9671C249.169 31.7611 249.234 31.5263 249.234 31.2872C249.252 31.1232 249.225 30.9575 249.156 30.8071C249.086 30.6568 248.977 30.5273 248.839 30.4322C248.382 30.2402 247.885 30.1599 247.389 30.1983H245.987C245.555 30.1781 245.129 30.311 244.789 30.5726C244.641 30.704 244.525 30.8654 244.448 31.0454C244.371 31.2255 244.336 31.4198 244.344 31.6148ZM244.98 25.2453C244.968 25.4607 245.002 25.6761 245.081 25.8777C245.159 26.0793 245.28 26.2626 245.435 26.4159C245.791 26.703 246.244 26.8493 246.705 26.826C246.934 26.8594 247.168 26.8407 247.388 26.7715C247.608 26.7022 247.809 26.5843 247.975 26.4268C248.141 26.2693 248.267 26.0765 248.344 25.8635C248.421 25.6504 248.447 25.4229 248.419 25.1985C248.453 24.9693 248.432 24.7355 248.358 24.5157C248.283 24.2959 248.157 24.0961 247.989 23.9323C247.822 23.7686 247.617 23.6453 247.392 23.5724C247.167 23.4995 246.928 23.4789 246.693 23.5124C246.463 23.497 246.231 23.5275 246.013 23.6019C245.794 23.6764 245.594 23.7932 245.423 23.9454C245.261 24.1201 245.137 24.3259 245.061 24.5497C244.985 24.7735 244.957 25.0104 244.98 25.2453Z" fill="white"/>
<path d="M259.308 22.7039C259.618 22.6987 259.927 22.7261 260.231 22.7855L260.063 23.8396C259.788 23.7744 259.507 23.739 259.224 23.7341C258.919 23.7326 258.617 23.7977 258.341 23.9247C258.065 24.0517 257.821 24.2373 257.628 24.468C257.177 24.9821 256.938 25.6416 256.957 26.3184V30.3549H255.76V22.8332H256.719L256.863 24.2268C257.11 23.764 257.464 23.3633 257.896 23.0562C258.316 22.7938 258.812 22.6706 259.31 22.7048L259.308 22.7039Z" fill="white"/>
<path d="M261.575 20.795C261.566 20.692 261.577 20.5882 261.61 20.4897C261.642 20.3912 261.694 20.3001 261.763 20.2217C261.898 20.1041 262.074 20.0414 262.254 20.0464C262.344 20.0438 262.434 20.0587 262.519 20.0902C262.603 20.1217 262.68 20.1692 262.745 20.2299C262.817 20.305 262.872 20.3937 262.907 20.4904C262.942 20.5872 262.956 20.6899 262.949 20.7923C262.957 20.8964 262.943 21.001 262.908 21.0996C262.873 21.1983 262.818 21.2888 262.745 21.3656C262.68 21.4264 262.603 21.4739 262.519 21.5054C262.434 21.5368 262.344 21.5517 262.254 21.5491C262.164 21.5524 262.074 21.5378 261.99 21.5063C261.905 21.4748 261.828 21.4269 261.763 21.3656C261.693 21.2883 261.641 21.1977 261.608 21.0995C261.576 21.0013 261.565 20.8976 261.575 20.795ZM262.773 30.3616H261.575V22.8325H262.773V30.3616Z" fill="white"/>
<path d="M271.605 22.8326V23.5114L270.179 23.6756C270.506 24.1085 270.682 24.6322 270.683 25.1701C270.697 25.5019 270.636 25.8327 270.503 26.1385C270.37 26.4443 270.17 26.7174 269.915 26.9379C269.313 27.4012 268.559 27.6343 267.794 27.5938C267.577 27.5986 267.36 27.5789 267.147 27.5351C266.945 27.6153 266.768 27.7483 266.637 27.9196C266.506 28.0908 266.426 28.2939 266.405 28.5066C266.398 28.5999 266.42 28.693 266.466 28.7745C266.513 28.8559 266.584 28.9223 266.669 28.9653C266.948 29.0842 267.252 29.1364 267.556 29.1176H268.922C269.603 29.0712 270.279 29.2531 270.839 29.6332C271.064 29.8112 271.242 30.0389 271.359 30.2975C271.476 30.5561 271.528 30.8381 271.511 31.1203C271.527 31.4992 271.44 31.8755 271.258 32.2107C271.077 32.5459 270.807 32.8281 270.478 33.0284C269.567 33.5183 268.532 33.7457 267.494 33.6844C266.656 33.7415 265.821 33.5497 265.097 33.1339C264.879 32.9842 264.696 32.792 264.559 32.5694C264.422 32.3469 264.334 32.0988 264.3 31.8411C264.266 31.5834 264.287 31.3217 264.363 31.0725C264.438 30.8233 264.565 30.5921 264.737 30.3937C265.056 30.0531 265.474 29.8162 265.935 29.7148C265.769 29.6312 265.625 29.5109 265.515 29.3635C265.381 29.1754 265.309 28.9509 265.312 28.7213C265.306 28.4651 265.386 28.214 265.54 28.0066C265.728 27.7595 265.969 27.5557 266.247 27.4094C265.844 27.2414 265.505 26.9551 265.276 26.5902C265.018 26.1958 264.888 25.735 264.9 25.2673C264.878 24.9168 264.933 24.5656 265.062 24.238C265.192 23.9104 265.393 23.6143 265.652 23.3701C266.255 22.892 267.021 22.6535 267.797 22.7023C268.165 22.6996 268.531 22.7427 268.887 22.8307L271.605 22.8326ZM265.517 31.6147C265.511 31.8029 265.556 31.9893 265.649 32.1542C265.742 32.3191 265.879 32.4564 266.045 32.5514C266.513 32.7789 267.033 32.8838 267.555 32.856C268.303 32.9054 269.052 32.7601 269.724 32.4349C269.938 32.3195 270.117 32.15 270.241 31.9441C270.366 31.7382 270.431 31.5034 270.431 31.2643C270.448 31.1016 270.422 30.9374 270.354 30.7876C270.287 30.6378 270.182 30.5075 270.048 30.4093C269.591 30.2186 269.094 30.1384 268.598 30.1754H267.196C266.763 30.1529 266.337 30.2861 265.998 30.5497C265.839 30.6785 265.712 30.8418 265.629 31.0267C265.545 31.2116 265.507 31.4129 265.517 31.6147ZM266.152 25.2453C266.138 25.4609 266.171 25.6769 266.25 25.8789C266.328 26.0808 266.45 26.264 266.607 26.4159C266.962 26.7051 267.417 26.8517 267.878 26.826C268.106 26.8606 268.34 26.8428 268.56 26.7738C268.78 26.7048 268.981 26.5866 269.146 26.4286C269.311 26.2706 269.436 26.0772 269.511 25.8636C269.587 25.6501 269.61 25.4224 269.579 25.1985C269.615 24.9648 269.594 24.726 269.517 24.502C269.44 24.2779 269.309 24.0751 269.136 23.9102C268.962 23.7454 268.751 23.6233 268.52 23.5541C268.289 23.4849 268.044 23.4706 267.806 23.5123C267.587 23.5039 267.368 23.5379 267.162 23.6122C266.957 23.6865 266.768 23.7997 266.607 23.9454C266.435 24.1151 266.3 24.3187 266.213 24.5427C266.127 24.7668 266.09 25.0062 266.104 25.2453H266.152Z" fill="white"/>
<path d="M278.448 30.3625V25.4911C278.484 24.9998 278.335 24.5127 278.029 24.1214C277.85 23.958 277.638 23.8328 277.407 23.7538C277.176 23.6748 276.93 23.6438 276.686 23.6627C276.36 23.6353 276.032 23.6787 275.726 23.7897C275.419 23.9008 275.141 24.0767 274.912 24.3049C274.482 24.9277 274.284 25.6756 274.349 26.4241V30.3588H273.151V19.6831H274.349V22.9151C274.358 23.2363 274.337 23.5577 274.289 23.8756H274.361C274.603 23.5109 274.943 23.2191 275.344 23.0325C275.795 22.8157 276.292 22.7071 276.794 22.716C277.561 22.6614 278.32 22.8962 278.915 23.3719C279.172 23.6537 279.368 23.984 279.49 24.3425C279.611 24.701 279.656 25.0801 279.622 25.4562V30.3625H278.448Z" fill="white"/>
<path d="M284.502 29.5536C284.701 29.5714 284.901 29.5714 285.101 29.5536C285.255 29.5359 285.407 29.5052 285.556 29.4619V30.3398C285.376 30.4119 285.186 30.4592 284.993 30.4802C284.776 30.5208 284.556 30.5405 284.335 30.5389C282.849 30.5389 282.094 29.7775 282.094 28.1968V23.7236H280.99V23.1732L282.092 22.7044L282.583 21.0999H283.267V22.8328H285.496V23.7227H283.267V28.1959C283.242 28.5702 283.357 28.9405 283.591 29.238C283.712 29.3495 283.855 29.4352 284.012 29.4895C284.169 29.5439 284.336 29.5657 284.502 29.5536Z" fill="white"/>
</svg>
