<svg id="Layer_1" data-name="Layer 1" xmlns="http://www.w3.org/2000/svg" viewBox="0 0 258.72 38.8"><defs><style>.cls-1{fill:#522367;}</style></defs><title>Staysure logo+strapline Purple</title><path class="cls-1" d="M10.83,12.18C7,10.39,5.05,9,5.05,6.16c0-2.2,1.51-4.43,4.89-4.43,3.85,0,5.2,2.79,6,5.53l0,.1,1.67-.24V7c-.17-1.22-.32-2.23-.45-3.11-.16-1.1-.29-2-.39-2.8V1l-.08,0a22.91,22.91,0,0,0-6-1C4.91,0,.85,3.2.85,7.77c0,4.72,4.52,6.89,7.83,8.47s5.83,3.11,5.83,6.1-2,4.82-5.27,4.82c-5,0-7-4.82-7.59-6.88l0-.12L0,20.56v.11a47.46,47.46,0,0,0,1.27,6.7v.05l.06,0,.28.12a15.22,15.22,0,0,0,2.14.77A16.58,16.58,0,0,0,8.36,29C14.52,29,19,25.51,19,20.73s-4.52-6.88-8.15-8.55"/><path class="cls-1" d="M31.32,25.43a7,7,0,0,1-2.73.63c-1.18,0-2.57-.67-2.57-3.85V11.57h4.73l0,0a1.18,1.18,0,0,0,.62-.89,1.21,1.21,0,0,0-.31-1l0,0H26V3.78l-.81-.16-3.53,3v3h-2L18.31,11l.3.62h3.07V23.65c0,3.4,1.69,5.19,4.91,5.19a5,5,0,0,0,1.95-.56L32,26.76l-.5-1.38Z"/><path class="cls-1" d="M40.36,19.88l1.1-.47c.87-.37,1.93-.82,2.62-1.14v6.38a5.78,5.78,0,0,1-3.26,1.28,3,3,0,0,1-3.08-3.08c0-1.52,1-2.24,2.62-3M51.47,25.2l-.12.07a3.37,3.37,0,0,1-1.57.41c-1,0-1.5-.84-1.5-2.37V15.63c0-2.61-.65-4.22-2.19-5.39a6.92,6.92,0,0,0-4-1.16h0a23.54,23.54,0,0,0-7.1,3c-1,.63-1.6,1.17-1.6,1.88a2.36,2.36,0,0,0,2.31,2,1.51,1.51,0,0,0,1.61-1.15A6.7,6.7,0,0,1,38.59,12a2.53,2.53,0,0,1,1.91-.76c2.24,0,3.58,1.71,3.58,4.56v.74c-1.15.82-4.76,2-7.15,2.73-2.6.84-3.81,2.19-3.81,4.26A5.59,5.59,0,0,0,39,28.84c1.19,0,3.11-1.22,4.8-2.29l.48-.31A4.16,4.16,0,0,0,45.38,28a4,4,0,0,0,2.36.87h0L52,26.58Z"/><path class="cls-1" d="M78.55,16.86c-1.86-.7-3.77-1.66-3.77-3.47a2.65,2.65,0,0,1,2.8-2.67c2.6,0,4,2.26,4.67,4.14l0,.11,1.48-.35,0-.11a28.37,28.37,0,0,0-1-4.59l0-.05,0,0a11,11,0,0,0-4.27-.77c-4.24,0-7.33,2.4-7.33,5.7,0,3.52,3.57,5,5.93,6,2.59,1.06,3.6,2.09,3.6,3.64a2.87,2.87,0,0,1-3.08,2.75c-2.94,0-4.88-2.82-5.64-5.24l0-.1-1.46.2v.11a18.87,18.87,0,0,0,.8,5.21l0,0a10.49,10.49,0,0,0,5.46,1.42c3.94,0,7.93-2.06,7.93-6,0-3.08-2.41-4.62-6-6"/><path class="cls-1" d="M104.56,23.44V9.27l-.48.08c-.75.12-1.79.29-3,.37-1.36.16-3,.29-4.27.33h-.12V11.3l1.73.27c1.39.24,1.76.4,1.76,2.58V24a7,7,0,0,1-4.57,1.83c-1.75,0-3.82-.78-3.82-4.48V15.58c0-2.76,0-4.76.14-6.15V9.27l-.37.06c-.82.12-2.07.31-3.26.43l-.47,0c-1.11.11-2.16.22-3.06.25H84.7v1.23l1.35.28c1.09.23,1.44.41,1.44,2.54v8.36c0,4.05,2.16,6.37,5.93,6.37a7.53,7.53,0,0,0,3.73-1.11,24.62,24.62,0,0,0,3-1.9l0,0v2.73l.42.33h.06c.93-.25,2.2-.56,3.43-.85,1.47-.33,2.7-.55,3.66-.67h.11V25.93l-1.32,0c-1.67-.12-2-.34-2-2.45"/><path class="cls-1" d="M124.7,11.4a2.69,2.69,0,0,0-2.91-2.32c-1.74,0-3.6,1.47-5.5,4.37V8.94l-.17.06a34.49,34.49,0,0,1-6.85,1.69h-.1v1.23l.1,0c2.45.32,2.68.43,2.68,3v8.83c0,2.69-.34,2.88-3,3.13h-.11v1.37h11.3V27H120c-3.59-.26-3.69-.51-3.69-3.13V16.11c.86-2,2.18-3.27,3.36-3.27a2.79,2.79,0,0,1,2,.81,1.28,1.28,0,0,0,1.38.15,2.63,2.63,0,0,0,1.71-2.4"/><path class="cls-1" d="M135.45,15.75c-2.52.09-4.92.13-7.32.13.63-3,2.38-5,4.49-5A3.59,3.59,0,0,1,135.26,12a4.11,4.11,0,0,1,1.14,3c0,.5-.13.72-1,.72m4.34,7.76a8,8,0,0,1-5.21,2c-3.25,0-6.56-2.37-6.7-7.65,5.33-.17,11-.59,11.82-.72,1-.14,1.23-.66,1.23-1.51,0-3.51-3.36-6.59-7.19-6.59h-.05a10.25,10.25,0,0,0-6.91,3.12,10.41,10.41,0,0,0-3.15,7.52,8.88,8.88,0,0,0,9.23,9.12c.7,0,4.38-.2,7.8-4.22l.07-.08-.84-1.11Z"/><path class="cls-1" d="M71.51,11V9.59H62.85V11L63,11c1.48.19,2.15.41,2.39.8s.13.68-.12,1.4c-.93,2.6-2.72,7.15-4,10l-4-10.11c-.28-.72-.34-1.11-.19-1.37s.72-.51,1.91-.7l.11,0L59,9.59H49V11l.11,0c2.4.29,2.83.79,3.8,3,1.16,2.47,3.12,7.24,5.39,13.08a2.47,2.47,0,0,1,.09,1.86,20,20,0,0,1-1.34,2.64,42.58,42.58,0,0,1-4.84,7L52,38.8h4.58l0-.08c.69-1.78,1.48-3.58,2.58-6.07.76-1.72,1.61-3.68,2.68-6.16l.55-1.3C65,19.1,66.32,16,67.41,14c1.24-2.34,1.65-2.64,4-3Z"/><path class="cls-1" d="M146.2,11.9l-.29-2.26-.74,2.26h-.51l-.75-2.26-.28,2.26h-.53l.42-2.76h.72l.68,2.22.67-2.22h.74l.41,2.76Zm-4.07-2.38V11.9h-.54V9.52h-.84V9.14H143v.38Z"/><path class="cls-1" d="M168.85,28.85h-1l-1.73-5.74q-.12-.37-.27-1a5.36,5.36,0,0,1-.16-.7,13.25,13.25,0,0,1-.41,1.69l-1.68,5.71h-1l-2.28-8.57h1.05l1.36,5.29a19.59,19.59,0,0,1,.41,2,13.32,13.32,0,0,1,.47-2.1l1.53-5.21h1.06l1.61,5.26a15.26,15.26,0,0,1,.47,2.05,20.62,20.62,0,0,1,.42-2l1.35-5.28h1.06Z"/><path class="cls-1" d="M177.88,25.63a3.53,3.53,0,0,1-.8,2.45,2.75,2.75,0,0,1-2.18.88,2.89,2.89,0,0,1-1.53-.4,2.65,2.65,0,0,1-1-1.16,4.11,4.11,0,0,1-.36-1.77,3.57,3.57,0,0,1,.78-2.45,2.78,2.78,0,0,1,2.18-.87,2.73,2.73,0,0,1,2.14.89A3.54,3.54,0,0,1,177.88,25.63Zm-4.9,0a3,3,0,0,0,.5,1.87,1.7,1.7,0,0,0,1.44.65,1.74,1.74,0,0,0,1.45-.64,3.05,3.05,0,0,0,.5-1.88,3,3,0,0,0-.5-1.86,1.72,1.72,0,0,0-1.46-.64,1.7,1.7,0,0,0-1.44.63A3,3,0,0,0,173,25.63Z"/><path class="cls-1" d="M182.51,22.31a3.61,3.61,0,0,1,.77.07l-.14.9a3.2,3.2,0,0,0-.7-.09,1.71,1.71,0,0,0-1.33.63,2.33,2.33,0,0,0-.56,1.58v3.45h-1V22.42h.8l.11,1.19h0a2.89,2.89,0,0,1,.86-1A1.94,1.94,0,0,1,182.51,22.31Z"/><path class="cls-1" d="M186.55,28.16a2.67,2.67,0,0,0,.5,0,2,2,0,0,0,.38-.08v.75a1.66,1.66,0,0,1-.46.12,2.9,2.9,0,0,1-.56.05c-1.24,0-1.86-.65-1.86-2V23.18h-.92v-.47l.92-.4.41-1.37h.56v1.48h1.87v.76h-1.87V27a1.27,1.27,0,0,0,.28.89A.93.93,0,0,0,186.55,28.16Z"/><path class="cls-1" d="M193.11,28.85V24.69a1.67,1.67,0,0,0-.36-1.17,1.45,1.45,0,0,0-1.12-.39,1.87,1.87,0,0,0-1.48.55,2.81,2.81,0,0,0-.46,1.81v3.36h-1V19.73h1v2.76a6,6,0,0,1-.05.82h.06a1.93,1.93,0,0,1,.82-.72,2.6,2.6,0,0,1,1.21-.27,2.48,2.48,0,0,1,1.76.56,2.32,2.32,0,0,1,.59,1.78v4.19Z"/><path class="cls-1" d="M203.57,28h0a2.27,2.27,0,0,1-2,1,2.37,2.37,0,0,1-2-.86,3.76,3.76,0,0,1-.7-2.45,3.81,3.81,0,0,1,.7-2.46,2.36,2.36,0,0,1,2-.88,2.31,2.31,0,0,1,2,1h.08l0-.47,0-.45V19.73h1v9.12h-.79Zm-1.95.17a1.78,1.78,0,0,0,1.45-.54,2.74,2.74,0,0,0,.45-1.75v-.21a3.25,3.25,0,0,0-.46-1.95,1.74,1.74,0,0,0-1.45-.58,1.49,1.49,0,0,0-1.31.67,3.31,3.31,0,0,0-.45,1.87,3.19,3.19,0,0,0,.45,1.86A1.52,1.52,0,0,0,201.62,28.15Z"/><path class="cls-1" d="M212.09,25.63a3.52,3.52,0,0,1-.79,2.45,2.75,2.75,0,0,1-2.18.88,2.86,2.86,0,0,1-1.53-.4,2.65,2.65,0,0,1-1-1.16,4.11,4.11,0,0,1-.37-1.77,3.57,3.57,0,0,1,.79-2.45,2.78,2.78,0,0,1,2.18-.87,2.73,2.73,0,0,1,2.14.89A3.54,3.54,0,0,1,212.09,25.63Zm-4.89,0a3.09,3.09,0,0,0,.49,1.87,1.71,1.71,0,0,0,1.45.65,1.74,1.74,0,0,0,1.45-.64,3.05,3.05,0,0,0,.5-1.88,3,3,0,0,0-.5-1.86,1.73,1.73,0,0,0-1.46-.64,1.7,1.7,0,0,0-1.44.63A3,3,0,0,0,207.2,25.63Z"/><path class="cls-1" d="M213.72,20.68a.66.66,0,0,1,.16-.49.59.59,0,0,1,.41-.15.57.57,0,0,1,.41.16.64.64,0,0,1,.17.48.65.65,0,0,1-.17.49.57.57,0,0,1-.41.16.56.56,0,0,1-.41-.16A.64.64,0,0,1,213.72,20.68Zm1.05,8.17h-1V22.42h1Z"/><path class="cls-1" d="M221.23,28.85V24.69a1.67,1.67,0,0,0-.36-1.17,1.45,1.45,0,0,0-1.12-.39,1.81,1.81,0,0,0-1.47.55,2.7,2.7,0,0,0-.47,1.8v3.37h-1V22.42h.8l.15.88h.05a2,2,0,0,1,.84-.73,2.64,2.64,0,0,1,1.2-.26,2.42,2.42,0,0,1,1.75.56,2.38,2.38,0,0,1,.58,1.79v4.19Z"/><path class="cls-1" d="M229.46,22.42V23l-1.19.14a2.26,2.26,0,0,1,.29.54,2,2,0,0,1,.13.74A1.92,1.92,0,0,1,228,26a2.63,2.63,0,0,1-1.77.56,2.36,2.36,0,0,1-.54-.05,1,1,0,0,0-.62.83.42.42,0,0,0,.22.39,1.63,1.63,0,0,0,.74.13h1.14a2.48,2.48,0,0,1,1.6.44,1.49,1.49,0,0,1,.56,1.27,1.82,1.82,0,0,1-.85,1.63,4.61,4.61,0,0,1-2.5.56,3.41,3.41,0,0,1-1.94-.47,1.49,1.49,0,0,1-.68-1.32,1.51,1.51,0,0,1,.37-1,1.92,1.92,0,0,1,1.06-.58,1.06,1.06,0,0,1-.42-.34.94.94,0,0,1-.16-.55,1,1,0,0,1,.18-.61,2,2,0,0,1,.6-.51,1.74,1.74,0,0,1-.82-.7,2.13,2.13,0,0,1-.31-1.13,2.07,2.07,0,0,1,.63-1.62,2.61,2.61,0,0,1,1.8-.57,3.52,3.52,0,0,1,.9.11Zm-5.13,7.5a.89.89,0,0,0,.44.8A2.57,2.57,0,0,0,226,31a3.6,3.6,0,0,0,1.82-.36,1.14,1.14,0,0,0,.59-1,.79.79,0,0,0-.33-.73,2.55,2.55,0,0,0-1.21-.2h-1.17a1.5,1.5,0,0,0-1,.32A1.14,1.14,0,0,0,224.33,29.92Zm.53-5.44a1.32,1.32,0,0,0,.38,1,1.54,1.54,0,0,0,1.06.35,1.25,1.25,0,0,0,1.43-1.39A1.27,1.27,0,0,0,226.29,23a1.43,1.43,0,0,0-1.06.37A1.45,1.45,0,0,0,224.86,24.48Z"/><path class="cls-1" d="M236.82,22.31a3.61,3.61,0,0,1,.77.07l-.14.9a3.2,3.2,0,0,0-.7-.09,1.71,1.71,0,0,0-1.33.63,2.33,2.33,0,0,0-.56,1.58v3.45h-1V22.42h.8l.12,1.19h0a2.89,2.89,0,0,1,.86-1A1.94,1.94,0,0,1,236.82,22.31Z"/><path class="cls-1" d="M238.71,20.68a.66.66,0,0,1,.16-.49.59.59,0,0,1,.41-.15.57.57,0,0,1,.41.16.64.64,0,0,1,.17.48.65.65,0,0,1-.17.49.57.57,0,0,1-.41.16.56.56,0,0,1-.41-.16A.64.64,0,0,1,238.71,20.68Zm1,8.17h-1V22.42h1Z"/><path class="cls-1" d="M247.08,22.42V23l-1.19.14a2.15,2.15,0,0,1,.42,1.28,1.91,1.91,0,0,1-.64,1.51,2.63,2.63,0,0,1-1.77.56,2.36,2.36,0,0,1-.54-.05,1,1,0,0,0-.62.83.41.41,0,0,0,.22.39,1.6,1.6,0,0,0,.74.13h1.14a2.5,2.5,0,0,1,1.6.44,1.52,1.52,0,0,1,.56,1.27,1.83,1.83,0,0,1-.86,1.63,4.59,4.59,0,0,1-2.49.56,3.47,3.47,0,0,1-2-.47,1.6,1.6,0,0,1-.3-2.34,1.93,1.93,0,0,1,1-.58A1,1,0,0,1,242,28a.94.94,0,0,1-.17-.55,1,1,0,0,1,.19-.61,1.8,1.8,0,0,1,.59-.51,1.76,1.76,0,0,1-.81-.7,2,2,0,0,1-.31-1.13,2.07,2.07,0,0,1,.63-1.62,2.58,2.58,0,0,1,1.79-.57,3.6,3.6,0,0,1,.91.11ZM242,29.92a.89.89,0,0,0,.44.8,2.52,2.52,0,0,0,1.26.26,3.54,3.54,0,0,0,1.81-.36,1.14,1.14,0,0,0,.59-1,.81.81,0,0,0-.32-.73,2.58,2.58,0,0,0-1.21-.2h-1.17a1.48,1.48,0,0,0-1,.32A1.11,1.11,0,0,0,242,29.92Zm.53-5.44a1.29,1.29,0,0,0,.38,1,1.52,1.52,0,0,0,1.06.35,1.24,1.24,0,0,0,1.42-1.39A1.27,1.27,0,0,0,243.91,23a1.39,1.39,0,0,0-1,.37A1.45,1.45,0,0,0,242.49,24.48Z"/><path class="cls-1" d="M252.79,28.85V24.69a1.72,1.72,0,0,0-.35-1.17,1.47,1.47,0,0,0-1.12-.39,1.85,1.85,0,0,0-1.48.55,2.81,2.81,0,0,0-.47,1.81v3.36h-1V19.73h1v2.76a4.72,4.72,0,0,1-.05.82h.06a2,2,0,0,1,.82-.72,2.63,2.63,0,0,1,1.21-.27,2.51,2.51,0,0,1,1.77.56,2.36,2.36,0,0,1,.59,1.78v4.19Z"/><path class="cls-1" d="M257.84,28.16a2.74,2.74,0,0,0,.5,0,2.25,2.25,0,0,0,.38-.08v.75a1.75,1.75,0,0,1-.47.12,2.8,2.8,0,0,1-.55.05c-1.24,0-1.87-.65-1.87-2V23.18h-.92v-.47l.92-.4.41-1.37h.57v1.48h1.86v.76h-1.86V27a1.32,1.32,0,0,0,.27.89A1,1,0,0,0,257.84,28.16Z"/></svg>