<svg width="333" height="88" viewBox="0 0 333 88" fill="none" xmlns="http://www.w3.org/2000/svg">
<path d="M24.5718 27.6242C15.8811 23.5639 11.4584 20.4116 11.4584 13.9703C11.4584 8.98063 14.8838 3.92347 22.5524 3.92347C31.2875 3.92347 34.3503 10.2511 36.1653 16.4651V16.6925L39.9551 16.1488V15.8769C39.5694 13.1102 39.2298 10.8198 38.9348 8.82248C38.5792 6.33477 38.277 4.28597 38.046 2.47172V2.26737H37.8682C33.451 0.909976 28.8724 0.147466 24.2536 0C11.1402 0 1.9287 7.257 1.9287 17.6219C1.9287 28.3261 12.1837 33.2482 19.694 36.8323C27.2044 40.4164 32.9211 43.8867 32.9211 50.6675C32.9211 57.4483 28.3829 61.5992 20.965 61.5992C9.62037 61.5992 5.08216 50.6675 3.74362 45.9959V45.7241L0 46.6303V46.8791C0.594715 52.007 1.5577 57.0856 2.88149 62.0754V62.1927H3.02192L3.65652 62.4646C5.22889 63.167 6.85163 63.7509 8.51114 64.2113C11.9065 65.2229 15.4277 65.7499 18.9705 65.7768C32.946 65.7768 43.1121 57.8605 43.1121 47.0195C43.1121 36.1784 32.8571 31.4162 24.6251 27.6278" fill="white"/>
<path d="M71.0598 57.6745C69.1118 58.5608 67.0046 59.0443 64.8649 59.0961C62.1878 59.0961 59.0344 57.5768 59.0344 50.3642V26.2388H69.7657C70.1445 26.0392 70.4699 25.7518 70.7145 25.4005C70.9592 25.0493 71.116 24.6445 71.1718 24.2202C71.2309 23.8131 71.1977 23.398 71.0746 23.0056C70.9515 22.6131 70.7417 22.2533 70.4608 21.9528H58.9881V8.57072L57.1501 8.21533L49.142 15.0121V21.816H44.6038L41.541 24.9469L42.2218 26.3525H49.1865V53.6373C49.1865 61.3492 53.0208 65.4077 60.3267 65.4077C61.8729 65.2909 63.3787 64.8585 64.7511 64.1372L72.601 60.69L71.4669 57.5608L71.0598 57.6745Z" fill="white"/>
<path d="M91.5729 45.088L94.0616 44.0219C96.0347 43.1832 98.4398 42.1614 100.006 41.4364V55.906C97.9001 57.6153 95.3159 58.6297 92.6093 58.8095C91.6848 58.8345 90.765 58.6709 89.9059 58.3287C89.0468 57.9865 88.2665 57.4729 87.6126 56.8192C86.9587 56.1655 86.4449 55.3855 86.1026 54.5267C85.7602 53.668 85.5966 52.7485 85.6215 51.8244C85.6215 48.3771 87.8897 46.7441 91.5658 45.0205M116.774 57.1552L116.502 57.3133C115.41 57.9075 114.19 58.2265 112.947 58.2427C110.679 58.2427 109.543 56.3378 109.543 52.8675V35.4535C109.543 29.5345 108.067 25.8829 104.565 23.2282C101.883 21.4403 98.7142 20.5214 95.4907 20.5965C89.7837 21.9644 84.3413 24.2632 79.3821 27.4004C77.1139 28.822 75.7523 30.0534 75.7523 31.6651C75.9457 32.9196 76.579 34.0646 77.5389 34.8956C78.4988 35.7265 79.7229 36.1894 80.9927 36.2016C81.8137 36.2792 82.6352 36.0581 83.3062 35.5789C83.9773 35.0997 84.4528 34.3946 84.6456 33.593C85.1049 31.2704 86.1008 29.0871 87.5538 27.2174C88.1152 26.6429 88.7911 26.1926 89.5376 25.8957C90.2842 25.5988 91.0847 25.4619 91.8876 25.4938C96.9697 25.4938 100.009 29.3728 100.009 35.8355V37.5094C97.3999 39.3699 89.2087 42.0459 83.787 43.7002C77.8872 45.6051 75.1426 48.6757 75.1426 53.3614C75.2236 55.0296 75.6335 56.6653 76.3487 58.1747C77.064 59.684 78.0705 61.0372 79.3105 62.1565C80.5505 63.2758 81.9995 64.1392 83.5743 64.6971C85.1491 65.255 86.8186 65.4963 88.487 65.4073C91.1872 65.4073 95.5441 62.6406 99.3784 60.2133L100.468 59.5025C100.947 61.0215 101.803 62.3945 102.957 63.4935C104.483 64.7093 106.36 65.4009 108.311 65.4659L117.976 60.2719L116.774 57.1552Z" fill="white"/>
<path d="M178.221 38.2387C174.001 36.6519 169.667 34.4734 169.667 30.3686C169.66 29.546 169.821 28.7306 170.142 27.9729C170.462 27.2151 170.935 26.5312 171.53 25.9635C172.126 25.3958 172.832 24.9564 173.604 24.6724C174.376 24.3885 175.199 24.2661 176.021 24.3129C181.92 24.3129 185.097 29.4393 186.617 33.7022V33.9509L189.975 33.1567V32.9079C189.508 29.3808 188.749 25.8985 187.706 22.4968V22.3831C184.625 21.1637 181.332 20.5699 178.019 20.6364C168.398 20.6364 161.387 26.0791 161.387 33.5636C161.387 41.5473 169.488 44.904 174.842 47.1713C180.719 49.5755 183.01 51.9122 183.01 55.427C182.976 56.3002 182.766 57.1576 182.394 57.9481C182.021 58.7386 181.493 59.446 180.84 60.028C180.188 60.6101 179.426 61.0549 178.598 61.336C177.77 61.6171 176.894 61.7286 176.022 61.664C169.351 61.664 164.95 55.267 163.224 49.7799V49.5524L159.91 50.0055V50.2543C159.959 54.2605 160.57 58.2399 161.725 62.0763C165.483 64.2602 169.767 65.3737 174.113 65.2961C183.053 65.2961 192.106 60.6245 192.106 51.6883C192.106 44.7032 186.638 41.2044 178.493 38.0805" fill="white"/>
<path d="M237.234 53.1625V21.0249L236.145 21.2026C234.443 21.4745 232.083 21.8601 229.338 22.0413C226.252 22.3967 222.532 22.6988 219.65 22.7894H219.371V25.6325L223.296 26.2455C226.449 26.7893 227.289 27.1535 227.289 32.097V54.433C224.449 57.0259 220.765 58.5008 216.92 58.584C212.949 58.584 208.252 56.807 208.252 48.4234V35.3363C208.252 29.0762 208.252 24.5397 208.57 21.3874V21.032L207.731 21.1688C205.87 21.4407 203.035 21.8796 200.335 22.1444H199.268C196.749 22.3931 194.367 22.6437 192.325 22.7112H192.174V25.501L195.237 26.1354C197.709 26.6578 198.504 27.0647 198.504 31.8962V50.8561C198.504 60.041 203.405 65.3043 211.959 65.3043C214.952 65.2209 217.87 64.3526 220.422 62.7864C222.791 61.5157 225.066 60.0756 227.228 58.4773V64.6682L228.181 65.4163H228.318C230.428 64.8494 233.309 64.1458 236.1 63.4883C239.435 62.7402 242.226 62.2444 244.405 61.969H244.654V58.8096H241.659C237.869 58.5378 237.12 58.0384 237.12 53.2532" fill="white"/>
<path d="M282.929 25.8559C282.72 24.2974 281.916 22.88 280.686 21.8996C279.456 20.9193 277.894 20.4517 276.327 20.5944C272.379 20.5944 268.159 23.928 263.849 30.5062V20.2764L263.463 20.4132C258.427 22.2185 253.219 23.5029 247.921 24.246H247.694V27.0358H247.921C253.48 27.7608 254.003 28.0114 254.003 33.8397V53.8658C254.003 59.966 253.231 60.3978 247.196 60.9735H246.947V64.0813H272.586V61.2383H272.267C264.122 60.6483 263.895 60.0815 263.895 54.1305V36.5389C265.85 32.0024 268.84 29.1219 271.519 29.1219C272.36 29.1116 273.194 29.2688 273.973 29.5842C274.752 29.8997 275.461 30.3671 276.057 30.9593C276.491 31.3107 277.017 31.5296 277.572 31.5898C278.128 31.65 278.688 31.5489 279.188 31.2987C280.304 30.8825 281.27 30.1416 281.962 29.1716C282.654 28.2016 283.039 27.0468 283.068 25.8559" fill="white"/>
<path d="M307.321 35.7215C301.604 35.9258 296.158 36.0165 290.713 36.0165C292.135 29.2126 296.113 24.6761 300.9 24.6761C302.02 24.6653 303.13 24.8854 304.161 25.3226C305.191 25.7598 306.121 26.4047 306.891 27.2171C307.757 28.1198 308.432 29.1874 308.876 30.3563C309.32 31.5251 309.525 32.7714 309.477 34.021C309.477 35.1547 309.182 35.654 307.209 35.654M317.055 53.2456C313.787 56.1272 309.592 57.7374 305.234 57.7821C297.861 57.7821 290.35 52.4069 290.032 40.4321C302.12 40.0466 314.99 39.0941 316.851 38.7991C319.119 38.4811 319.642 37.303 319.642 35.375C319.642 27.4143 312.017 20.4292 303.329 20.4292H303.215C297.276 20.698 291.666 23.2299 287.536 27.505C285.258 29.7211 283.45 32.3743 282.222 35.3055C280.994 38.2367 280.37 41.3856 280.389 44.5635C280.312 47.3221 280.803 50.067 281.831 52.6279C282.86 55.1889 284.404 57.5112 286.367 59.4509C288.331 61.3905 290.672 62.906 293.247 63.9034C295.821 64.9008 298.572 65.3587 301.331 65.2488C302.918 65.2488 311.269 64.7957 319.028 55.6782L319.187 55.5005L317.281 52.9826L317.055 53.2456Z" fill="white"/>
<path d="M162.248 24.949V21.7505H142.6V24.949H142.94C146.298 25.3808 147.817 25.8783 148.363 26.7632C148.909 27.6481 148.658 28.3056 148.091 29.9386C145.981 35.8362 141.919 46.1549 139.015 52.6194L129.938 29.6969C129.304 28.0639 129.167 27.179 129.506 26.5891C129.846 25.9991 131.14 25.4323 133.84 25.0023H134.089L133.865 21.7505H111.176V24.949H111.425C116.869 25.6064 117.845 26.7401 120.046 31.7529C122.679 37.3555 127.124 48.1735 132.276 61.4188C132.892 62.7444 132.965 64.2582 132.48 65.6372C131.616 67.7056 130.6 69.7072 129.441 71.6255C126.321 77.2703 122.644 82.5885 118.464 87.5006L117.988 87.9999H128.379V87.8222C129.945 83.785 131.737 79.7034 134.233 74.0545C135.957 70.1453 137.886 65.703 140.314 60.0843L141.559 57.1364C147.48 43.3242 150.475 36.2929 152.948 31.7564C155.762 26.4487 156.691 25.7681 162.024 24.9525L162.248 24.949Z" fill="white"/>
<path d="M331.711 26.9901L331.053 21.8637L329.373 26.9901H328.216L326.515 21.8637L325.88 26.9901H324.679L325.631 20.73H327.265L328.808 25.7658L330.328 20.73H332.008L332.937 26.9901H331.711ZM322.476 21.5918V26.9901H321.251V21.5918H319.346V20.73H324.451V21.5918H322.476Z" fill="white"/>
</svg>
