<svg width="152" height="40" viewBox="0 0 152 40" fill="none" xmlns="http://www.w3.org/2000/svg">
<path d="M11.169 12.5565C7.21867 10.7109 5.20837 9.27802 5.20837 6.35012C5.20837 4.0821 6.76538 1.7834 10.2511 1.7834C14.2216 1.7834 15.6138 4.65961 16.4388 7.48412V7.58751L18.1614 7.34035V7.21678C17.9861 5.95919 17.8317 4.91807 17.6976 4.01022C17.536 2.87944 17.3987 1.94817 17.2936 1.12351V1.03062H17.2128C15.205 0.413625 13.1238 0.0670302 11.0243 0C5.06373 0 0.87668 3.29864 0.87668 8.00994C0.87668 12.8755 5.53803 15.1128 8.95183 16.742C12.3656 18.3711 14.9642 19.9485 14.9642 23.0307C14.9642 26.1129 12.9013 27.9996 9.52955 27.9996C4.37289 27.9996 2.31007 23.0307 1.70165 20.9072V20.7837L0 21.1956V21.3087C0.270325 23.6396 0.708044 25.948 1.30977 28.2161V28.2694H1.3736L1.66206 28.393C2.37677 28.7123 3.11438 28.9777 3.8687 29.187C5.41203 29.6468 7.0126 29.8863 8.62297 29.8985C14.9755 29.8985 19.5964 26.3002 19.5964 21.3725C19.5964 16.4447 14.9351 14.2801 11.1932 12.5581" fill="white"/>
<path d="M32.3005 26.2158C31.415 26.6187 30.4572 26.8385 29.4846 26.862C28.2677 26.862 26.8343 26.1714 26.8343 22.893V11.9268H31.7122C31.8844 11.8361 32.0323 11.7055 32.1435 11.5458C32.2547 11.3862 32.326 11.2022 32.3514 11.0093C32.3782 10.8243 32.3631 10.6356 32.3072 10.4572C32.2512 10.2788 32.1559 10.1153 32.0282 9.97868H26.8133V3.89591L25.9779 3.73438L22.3378 6.82382V9.91649H20.275L18.8828 11.3397L19.1923 11.9785H22.358V24.3807C22.358 27.8861 24.1009 29.7309 27.4218 29.7309C28.1246 29.6778 28.809 29.4813 29.4329 29.1534L33.001 27.5865L32.4855 26.1641L32.3005 26.2158Z" fill="white"/>
<path d="M41.6246 20.4945L42.7558 20.0099C43.6527 19.6287 44.7459 19.1643 45.4577 18.8347V25.4118C44.5006 26.1887 43.3259 26.6498 42.0957 26.7316C41.6755 26.7429 41.2573 26.6686 40.8669 26.513C40.4764 26.3575 40.1217 26.124 39.8244 25.8269C39.5272 25.5298 39.2937 25.1752 39.1381 24.7849C38.9825 24.3945 38.9081 23.9766 38.9194 23.5565C38.9194 21.9896 39.9504 21.2473 41.6214 20.4638M53.0796 25.9796L52.956 26.0515C52.4597 26.3216 51.905 26.4666 51.34 26.4739C50.309 26.4739 49.7927 25.6081 49.7927 24.0306V16.1152C49.7927 13.4248 49.122 11.7649 47.5303 10.5582C46.3108 9.74556 44.8706 9.32791 43.4054 9.36204V9.36204C40.8113 9.9838 38.3375 11.0287 36.0833 12.4547C35.0523 13.1009 34.4334 13.6606 34.4334 14.3932C34.5213 14.9634 34.8091 15.4839 35.2455 15.8616C35.6818 16.2393 36.2382 16.4497 36.8154 16.4552C37.1886 16.4905 37.562 16.39 37.867 16.1722C38.172 15.9544 38.3882 15.6339 38.4758 15.2695C38.6846 14.2138 39.1372 13.2214 39.7977 12.3715C40.0529 12.1104 40.3601 11.9057 40.6995 11.7708C41.0388 11.6358 41.4027 11.5736 41.7676 11.5881C44.0777 11.5881 45.4594 13.3513 45.4594 16.2889V17.0497C44.2732 17.8954 40.5499 19.1118 38.0856 19.8637C35.4038 20.7296 34.1562 22.1253 34.1562 24.2552C34.1931 25.0134 34.3794 25.7569 34.7045 26.443C35.0296 27.1291 35.4871 27.7442 36.0508 28.2529C36.6144 28.7617 37.273 29.1542 37.9889 29.4078C38.7047 29.6613 39.4636 29.771 40.2219 29.7306C41.4493 29.7306 43.4297 28.473 45.1725 27.3697L45.6678 27.0466C45.8857 27.737 46.2748 28.3611 46.799 28.8607C47.4927 29.4133 48.3462 29.7277 49.2327 29.7572V29.7572L53.6258 27.3963L53.0796 25.9796Z" fill="white"/>
<path d="M81.0088 17.3813C79.0906 16.66 77.1207 15.6698 77.1207 13.804C77.1172 13.4301 77.1905 13.0594 77.3362 12.715C77.4818 12.3706 77.6967 12.0597 77.9674 11.8016C78.2381 11.5436 78.559 11.3438 78.91 11.2148C79.2611 11.0857 79.635 11.0301 80.0084 11.0513C82.6902 11.0513 84.1341 13.3815 84.8249 15.3192V15.4323L86.3512 15.0712V14.9582C86.139 13.355 85.7942 11.7721 85.3202 10.2259V10.1742C83.9197 9.6199 82.4227 9.34999 80.9166 9.38021C76.5437 9.38021 73.357 11.8542 73.357 15.2562C73.357 18.8852 77.039 20.4109 79.4727 21.4416C82.144 22.5344 83.1855 23.5965 83.1855 25.1941C83.17 25.591 83.0747 25.9808 82.9052 26.3401C82.7358 26.6994 82.4957 27.0209 82.1993 27.2855C81.9029 27.5501 81.5562 27.7523 81.18 27.88C80.8037 28.0078 80.4055 28.0585 80.0093 28.0291C76.9768 28.0291 74.9762 25.1214 74.1917 22.6273V22.5239L72.6855 22.7298V22.8429C72.7076 24.6639 72.9853 26.4727 73.5105 28.2165V28.2165C75.2186 29.2092 77.166 29.7154 79.1415 29.6801C83.2049 29.6801 87.32 27.5566 87.32 23.4947C87.32 20.3197 84.8346 18.7293 81.1324 17.3094" fill="white"/>
<path d="M107.834 24.1647V9.55664L107.338 9.63741C106.565 9.76099 105.492 9.93626 104.244 10.0186C102.842 10.1802 101.151 10.3175 99.8408 10.3587H99.714V11.651L101.498 11.9297C102.931 12.1768 103.313 12.3424 103.313 14.5894V24.7422C102.022 25.9207 100.347 26.5912 98.5997 26.6289C96.7947 26.6289 94.6599 25.8212 94.6599 22.0105V16.0618C94.6599 13.2163 94.6599 11.1543 94.8046 9.72141V9.55987L94.4232 9.62206C93.5772 9.74564 92.2884 9.94514 91.0611 10.0655H90.5763C89.4314 10.1786 88.3486 10.2925 87.4202 10.3231H87.3516V11.5912L88.7437 11.8796C89.8677 12.117 90.2289 12.302 90.2289 14.4981V23.1163C90.2289 27.2913 92.4565 29.6836 96.3446 29.6836C97.7051 29.6457 99.0317 29.251 100.191 28.5391C101.269 27.9615 102.303 27.307 103.285 26.5805V29.3945L103.718 29.7345H103.781C104.74 29.4769 106.049 29.157 107.318 28.8582C108.834 28.5181 110.102 28.2928 111.093 28.1676H111.206V26.7315H109.845C108.122 26.6079 107.782 26.381 107.782 24.2058" fill="white"/>
<path d="M128.604 11.7527C128.508 11.0443 128.143 10.4 127.584 9.95439C127.025 9.50877 126.315 9.29623 125.603 9.36113C123.808 9.36113 121.89 10.8764 119.931 13.8665V9.21655L119.755 9.27875C117.466 10.0993 115.099 10.6831 112.691 11.0209H112.587V12.289H112.691C115.217 12.6186 115.455 12.7325 115.455 15.3817V24.4845C115.455 27.2573 115.104 27.4535 112.361 27.7152H112.248V29.1279H123.902V27.8356H123.757C120.055 27.5674 119.952 27.3098 119.952 24.6048V16.6086C120.84 14.5465 122.199 13.2373 123.417 13.2373C123.799 13.2326 124.178 13.304 124.532 13.4474C124.887 13.5908 125.209 13.8033 125.48 14.0724C125.677 14.2322 125.916 14.3317 126.169 14.359C126.421 14.3864 126.676 14.3404 126.903 14.2267C127.41 14.0375 127.849 13.7008 128.164 13.2598C128.478 12.8189 128.653 12.294 128.667 11.7527" fill="white"/>
<path d="M139.692 16.2372C137.093 16.3301 134.618 16.3713 132.143 16.3713C132.789 13.2786 134.597 11.2165 136.773 11.2165C137.282 11.2116 137.787 11.3117 138.255 11.5104C138.724 11.7091 139.146 12.0023 139.496 12.3715C139.89 12.7819 140.197 13.2671 140.399 13.7984C140.601 14.3297 140.694 14.8962 140.672 15.4642C140.672 15.9795 140.538 16.2065 139.641 16.2065M144.116 24.2027C142.631 25.5125 140.724 26.2444 138.743 26.2647C135.392 26.2647 131.978 23.8215 131.833 18.3784C137.328 18.2031 143.178 17.7702 144.024 17.6361C145.055 17.4915 145.292 16.956 145.292 16.0797C145.292 12.4612 141.827 9.28613 137.877 9.28613H137.825C135.126 9.4083 132.576 10.5592 130.699 12.5024C129.663 13.5097 128.841 14.7157 128.283 16.0481C127.725 17.3805 127.441 18.8118 127.45 20.2563C127.415 21.5102 127.638 22.7578 128.106 23.9219C128.573 25.086 129.275 26.1416 130.167 27.0232C131.06 27.9049 132.124 28.5938 133.294 29.0471C134.464 29.5005 135.715 29.7086 136.969 29.6587C137.69 29.6587 141.486 29.4527 145.013 25.3084L145.085 25.2277L144.219 24.0831L144.116 24.2027Z" fill="white"/>
<path d="M73.7488 11.3406V9.88672H64.818V11.3406H64.9723C66.4986 11.5368 67.1895 11.763 67.4375 12.1652C67.6856 12.5675 67.5717 12.8663 67.3139 13.6086C66.3548 16.2893 64.5085 20.9796 63.1883 23.918L59.0626 13.4987C58.7742 12.7565 58.7119 12.3542 58.8663 12.0861C59.0206 11.8179 59.6088 11.5603 60.8362 11.3648H60.9493L60.8475 9.88672H50.5342V11.3406H50.6473C53.1222 11.6394 53.5658 12.1547 54.5661 14.4332C55.7627 16.9799 57.7836 21.8972 60.1251 27.9178C60.4051 28.5203 60.4385 29.2084 60.2181 29.8352C59.8254 30.7754 59.3636 31.6852 58.8364 32.5572C57.4184 35.123 55.747 37.5404 53.847 39.7731L53.6304 40.0001H58.354V39.9193C59.0658 38.0842 59.8803 36.229 61.0147 33.6613C61.7985 31.8844 62.6752 29.8651 63.7789 27.3112L64.3445 25.9712C67.036 19.693 68.3974 16.4969 69.5214 14.4349C70.8004 12.0223 71.223 11.7129 73.647 11.3422L73.7488 11.3406Z" fill="white"/>
<path d="M150.778 12.2681L150.479 9.93792L149.715 12.2681H149.189L148.416 9.93792L148.127 12.2681H147.581L148.014 9.42261H148.757L149.458 11.7116L150.149 9.42261H150.913L151.335 12.2681H150.778ZM146.58 9.81434V12.2681H146.023V9.81434H145.157V9.42261H147.478V9.81434H146.58Z" fill="white"/>
</svg>
