<svg width="170" height="22" viewBox="0 0 170 22" fill="none" xmlns="http://www.w3.org/2000/svg">
<g clip-path="url(#clip0_7870_8851)">
<path d="M17.1429 3H0V19H17.1429V3Z" fill="#00B67A"/>
<path d="M35.7151 3H18.5723V19H35.7151V3Z" fill="#00B67A"/>
<path d="M54.2854 3H37.1426V19H54.2854V3Z" fill="#00B67A"/>
<path d="M72.8577 3H55.7148V19H72.8577V3Z" fill="#00B67A"/>
<path d="M91.4289 3H82.8574V19H91.4289V3Z" fill="#DCDCE6"/>
<path d="M82.8566 3H74.2852V19H82.8566V3Z" fill="#00B67A"/>
<path d="M8.57226 13.7835L11.1794 13.1669L12.2687 16.3002L8.57226 13.7835ZM14.5723 9.73353H9.98298L8.57226 5.7002L7.16155 9.73353H2.57227L6.28655 12.2335L4.87584 16.2669L8.59012 13.7669L10.8758 12.2335L14.5723 9.73353Z" fill="white"/>
<path d="M27.1426 13.7835L29.7497 13.1669L30.839 16.3002L27.1426 13.7835ZM33.1426 9.73353H28.5533L27.1426 5.7002L25.7319 9.73353H21.1426L24.8569 12.2335L23.4461 16.2669L27.1604 13.7669L29.4461 12.2335L33.1426 9.73353Z" fill="white"/>
<path d="M45.7148 13.7835L48.322 13.1669L49.4113 16.3002L45.7148 13.7835ZM51.7148 9.73353H47.1256L45.7148 5.7002L44.3041 9.73353H39.7148L43.4291 12.2335L42.0184 16.2669L45.7327 13.7669L48.0184 12.2335L51.7148 9.73353Z" fill="white"/>
<path d="M64.2852 13.7835L66.8923 13.1669L67.9816 16.3002L64.2852 13.7835ZM70.2852 9.73353H65.6959L64.2852 5.7002L62.8744 9.73353H58.2852L61.9994 12.2335L60.5887 16.2669L64.303 13.7669L66.5887 12.2335L70.2852 9.73353Z" fill="white"/>
<path d="M82.8574 13.7835L85.4646 13.1669L86.5539 16.3002L82.8574 13.7835ZM88.8574 9.73353H84.2681L82.8574 5.7002L81.4467 9.73353H76.8574L80.5717 12.2335L79.161 16.2669L82.8753 13.7669L85.161 12.2335L88.8574 9.73353Z" fill="white"/>
</g>
<g clip-path="url(#clip1_7870_8851)">
<path d="M118.594 8.6709H125.537V9.90167H122.807V16.8204H121.306V9.90167H118.588V8.6709H118.594ZM125.24 10.9196H126.524V12.0584H126.548C126.59 11.8974 126.669 11.7421 126.784 11.5925C126.899 11.443 127.038 11.2992 127.202 11.1784C127.365 11.0519 127.547 10.9541 127.746 10.8736C127.946 10.7989 128.152 10.7586 128.358 10.7586C128.515 10.7586 128.63 10.7644 128.691 10.7701C128.751 10.7759 128.812 10.7874 128.878 10.7931V12.0469C128.782 12.0296 128.685 12.0181 128.582 12.0066C128.479 11.9951 128.382 11.9894 128.285 11.9894C128.055 11.9894 127.837 12.0354 127.631 12.1217C127.426 12.2079 127.25 12.3402 127.099 12.507C126.947 12.6795 126.826 12.8866 126.736 13.1396C126.645 13.3927 126.602 13.6802 126.602 14.0081V16.8147H125.234V10.9196H125.24ZM135.168 16.8204H133.824V15.998H133.8C133.63 16.2971 133.382 16.5329 133.049 16.7112C132.716 16.8894 132.377 16.9815 132.032 16.9815C131.215 16.9815 130.622 16.7917 130.259 16.4063C129.895 16.021 129.714 15.4401 129.714 14.6637V10.9196H131.082V14.5372C131.082 15.0548 131.185 15.4229 131.397 15.6357C131.602 15.8485 131.899 15.9577 132.274 15.9577C132.565 15.9577 132.801 15.9175 132.995 15.8312C133.188 15.7449 133.346 15.6357 133.461 15.4919C133.582 15.3539 133.667 15.1813 133.721 14.9858C133.776 14.7902 133.8 14.5774 133.8 14.3474V10.9254H135.168V16.8204ZM137.498 14.9283C137.541 15.3078 137.692 15.5724 137.952 15.7277C138.219 15.8772 138.533 15.9577 138.903 15.9577C139.03 15.9577 139.175 15.9462 139.338 15.929C139.502 15.9117 139.659 15.8715 139.799 15.8197C139.944 15.768 140.059 15.6874 140.156 15.5839C140.246 15.4804 140.289 15.3481 140.283 15.1813C140.277 15.0145 140.21 14.8765 140.089 14.773C139.968 14.6637 139.817 14.5832 139.629 14.5142C139.441 14.4509 139.23 14.3934 138.987 14.3474C138.745 14.3014 138.503 14.2496 138.255 14.1979C138.001 14.1461 137.753 14.0771 137.516 14.0023C137.28 13.9275 137.069 13.824 136.881 13.6917C136.693 13.5652 136.542 13.3984 136.433 13.1971C136.318 12.9958 136.263 12.7485 136.263 12.4495C136.263 12.1274 136.348 11.8628 136.512 11.6443C136.675 11.4258 136.887 11.2532 137.135 11.1209C137.389 10.9887 137.668 10.8966 137.977 10.8391C138.285 10.7874 138.582 10.7586 138.86 10.7586C139.181 10.7586 139.49 10.7931 139.78 10.8564C140.071 10.9196 140.337 11.0232 140.573 11.1727C140.809 11.3165 141.003 11.5063 141.161 11.7363C141.318 11.9664 141.415 12.2482 141.457 12.576H140.029C139.962 12.2654 139.817 12.0526 139.581 11.9491C139.345 11.8398 139.072 11.7881 138.769 11.7881C138.673 11.7881 138.558 11.7938 138.424 11.8111C138.291 11.8283 138.17 11.8571 138.049 11.8974C137.934 11.9376 137.837 12.0009 137.753 12.0814C137.674 12.1619 137.631 12.2654 137.631 12.3977C137.631 12.5587 137.692 12.6853 137.807 12.783C137.922 12.8808 138.073 12.9613 138.261 13.0304C138.449 13.0936 138.661 13.1511 138.903 13.1971C139.145 13.2431 139.393 13.2949 139.647 13.3467C139.895 13.3984 140.138 13.4674 140.38 13.5422C140.622 13.617 140.834 13.7205 141.021 13.8528C141.209 13.9851 141.36 14.1461 141.475 14.3416C141.59 14.5372 141.651 14.7845 141.651 15.072C141.651 15.4229 141.566 15.7162 141.397 15.9635C141.227 16.205 141.009 16.4063 140.743 16.5559C140.477 16.7054 140.174 16.8204 139.847 16.8894C139.52 16.9585 139.193 16.993 138.872 16.993C138.479 16.993 138.116 16.9527 137.783 16.8664C137.45 16.7802 137.159 16.6536 136.917 16.4869C136.675 16.3143 136.481 16.1015 136.342 15.8485C136.203 15.5954 136.13 15.2906 136.118 14.9398H137.498V14.9283ZM142.014 10.9196H143.049V9.14825H144.417V10.9196H145.652V11.8916H144.417V15.0433C144.417 15.1813 144.423 15.2963 144.435 15.3999C144.447 15.4976 144.478 15.5839 144.52 15.6529C144.562 15.7219 144.629 15.7737 144.72 15.8082C144.811 15.8427 144.926 15.86 145.083 15.86C145.18 15.86 145.277 15.86 145.374 15.8542C145.47 15.8485 145.567 15.837 145.664 15.814V16.8204C145.513 16.8377 145.361 16.8492 145.222 16.8664C145.077 16.8837 144.932 16.8894 144.78 16.8894C144.417 16.8894 144.127 16.8549 143.909 16.7917C143.691 16.7284 143.515 16.6306 143.394 16.5041C143.267 16.3776 143.188 16.2223 143.14 16.0325C143.098 15.8427 143.067 15.6242 143.061 15.3826V11.9031H142.026V10.9196H142.014ZM146.621 10.9196H147.916V11.7191H147.94C148.134 11.374 148.4 11.1324 148.745 10.9829C149.09 10.8334 149.46 10.7586 149.865 10.7586C150.355 10.7586 150.779 10.8391 151.142 11.0059C151.506 11.1669 151.808 11.3912 152.05 11.6788C152.292 11.9664 152.468 12.2999 152.589 12.6795C152.71 13.0591 152.771 13.4674 152.771 13.8988C152.771 14.2956 152.716 14.681 152.607 15.049C152.498 15.4229 152.335 15.7507 152.117 16.0383C151.899 16.3258 151.621 16.5501 151.282 16.7227C150.943 16.8952 150.549 16.9815 150.089 16.9815C149.889 16.9815 149.69 16.9642 149.49 16.9297C149.29 16.8952 149.096 16.8377 148.915 16.7629C148.733 16.6882 148.558 16.5904 148.406 16.4696C148.249 16.3488 148.122 16.2108 148.013 16.0555H147.989V19.0002H146.621V10.9196ZM151.403 13.8758C151.403 13.6112 151.366 13.3524 151.294 13.0994C151.221 12.8463 151.112 12.6278 150.967 12.4322C150.822 12.2367 150.64 12.0814 150.428 11.9664C150.21 11.8513 149.962 11.7881 149.684 11.7881C149.108 11.7881 148.673 11.9779 148.382 12.3575C148.092 12.737 147.946 13.2431 147.946 13.8758C147.946 14.1749 147.983 14.4509 148.061 14.704C148.14 14.957 148.249 15.1756 148.406 15.3596C148.558 15.5437 148.739 15.6874 148.951 15.791C149.163 15.9002 149.411 15.952 149.69 15.952C150.004 15.952 150.265 15.8887 150.483 15.768C150.7 15.6472 150.876 15.4861 151.015 15.2963C151.154 15.1008 151.257 14.8823 151.318 14.635C151.372 14.3876 151.403 14.1346 151.403 13.8758ZM153.818 8.6709H155.186V9.90167H153.818V8.6709ZM153.818 10.9196H155.186V16.8204H153.818V10.9196ZM156.409 8.6709H157.777V16.8204H156.409V8.6709ZM161.972 16.9815C161.475 16.9815 161.033 16.9009 160.646 16.7457C160.259 16.5904 159.932 16.3718 159.659 16.1015C159.393 15.8255 159.187 15.4976 159.048 15.1181C158.909 14.7385 158.836 14.3186 158.836 13.8643C158.836 13.4157 158.909 13.0016 159.048 12.622C159.187 12.2424 159.393 11.9146 159.659 11.6385C159.926 11.3625 160.259 11.1497 160.646 10.9944C161.033 10.8391 161.475 10.7586 161.972 10.7586C162.468 10.7586 162.91 10.8391 163.297 10.9944C163.685 11.1497 164.012 11.3682 164.284 11.6385C164.55 11.9146 164.756 12.2424 164.895 12.622C165.035 13.0016 165.107 13.4157 165.107 13.8643C165.107 14.3186 165.035 14.7385 164.895 15.1181C164.756 15.4976 164.55 15.8255 164.284 16.1015C164.018 16.3776 163.685 16.5904 163.297 16.7457C162.91 16.9009 162.468 16.9815 161.972 16.9815ZM161.972 15.952C162.274 15.952 162.541 15.8887 162.765 15.768C162.989 15.6472 163.17 15.4861 163.315 15.2906C163.461 15.0951 163.564 14.8708 163.636 14.6235C163.703 14.3761 163.739 14.1231 163.739 13.8643C163.739 13.6112 163.703 13.3639 163.636 13.1109C163.57 12.8578 163.461 12.6393 163.315 12.4437C163.17 12.2482 162.989 12.0929 162.765 11.9721C162.541 11.8513 162.274 11.7881 161.972 11.7881C161.669 11.7881 161.403 11.8513 161.179 11.9721C160.955 12.0929 160.773 12.2539 160.628 12.4437C160.483 12.6393 160.38 12.8578 160.307 13.1109C160.24 13.3639 160.204 13.6112 160.204 13.8643C160.204 14.1231 160.24 14.3761 160.307 14.6235C160.374 14.8708 160.483 15.0951 160.628 15.2906C160.773 15.4861 160.955 15.6472 161.179 15.768C161.403 15.8945 161.669 15.952 161.972 15.952ZM165.507 10.9196H166.542V9.14825H167.91V10.9196H169.145V11.8916H167.91V15.0433C167.91 15.1813 167.916 15.2963 167.928 15.3999C167.94 15.4976 167.97 15.5839 168.013 15.6529C168.055 15.7219 168.122 15.7737 168.213 15.8082C168.303 15.8427 168.418 15.86 168.576 15.86C168.673 15.86 168.769 15.86 168.866 15.8542C168.963 15.8485 169.06 15.837 169.157 15.814V16.8204C169.006 16.8377 168.854 16.8492 168.715 16.8664C168.57 16.8837 168.424 16.8894 168.273 16.8894C167.91 16.8894 167.619 16.8549 167.401 16.7917C167.184 16.7284 167.008 16.6306 166.887 16.5041C166.76 16.3776 166.681 16.2223 166.633 16.0325C166.59 15.8427 166.56 15.6242 166.554 15.3826V11.9031H165.519V10.9196H165.507Z" fill="white"/>
<path d="M116.995 8.67074H110.724L108.787 3L106.843 8.67074L100.572 8.66499L105.651 12.1733L103.708 17.8382L108.787 14.3357L113.859 17.8382L111.922 12.1733L116.995 8.67074Z" fill="#00B67A"/>
<path d="M112.359 13.4559L111.923 12.1733L108.787 14.3358L112.359 13.4559Z" fill="#005128"/>
</g>
<defs>
<clipPath id="clip0_7870_8851">
<rect width="91.4286" height="16" fill="white" transform="translate(0 3)"/>
</clipPath>
<clipPath id="clip1_7870_8851">
<rect width="68.5714" height="16" fill="white" transform="translate(100.572 3)"/>
</clipPath>
</defs>
</svg>
