<svg width="23" height="16" viewBox="0 0 23 16" fill="none" xmlns="http://www.w3.org/2000/svg">
    <g clip-path="url(#clip0_11601_21913)">
    <rect width="22.4" height="16" rx="3" fill="#F93939"/>
    <path d="M20.2667 0H2.13333C0.955126 0 0 0.955126 0 2.13333V13.8667C0 15.0449 0.955126 16 2.13333 16H20.2667C21.4449 16 22.4 15.0449 22.4 13.8667V2.13333C22.4 0.955126 21.4449 0 20.2667 0Z" fill="#F93939"/>
    <path fill-rule="evenodd" clip-rule="evenodd" d="M0 4.26672H22.4V11.7334H0V4.26672Z" fill="#FFDA2C"/>
    <path fill-rule="evenodd" clip-rule="evenodd" d="M9.6 6.63677V9.32477C9.6 10.0714 8.8832 10.6688 8 10.6688H5.86666C4.9856 10.6666 4.26666 10.0661 4.26666 9.32264V6.63464C4.26666 6.02451 4.74453 5.51464 5.4016 5.34931C5.6 4.79464 6.21013 5.29171 6.93333 5.29171C7.6608 5.29171 8.26666 4.79784 8.46506 5.35037C9.12 5.51997 9.6 6.03091 9.6 6.63677Z" fill="#D4AF2C"/>
    <path fill-rule="evenodd" clip-rule="evenodd" d="M9.60001 7.46667H10.6667V10.6667H9.60001V7.46667ZM3.20001 7.46667H4.26668V10.6667H3.20001V7.46667Z" fill="#CBCBCB"/>
    <path fill-rule="evenodd" clip-rule="evenodd" d="M9.60001 9.59998H10.6667V10.6666H9.60001V9.59998ZM3.20001 9.59998H4.26668V10.6666H3.20001V9.59998Z" fill="#1A47B8"/>
    <path fill-rule="evenodd" clip-rule="evenodd" d="M9.60001 6.40002H10.6667V7.46669H9.60001V6.40002ZM3.20001 6.40002H4.26668V7.46669H3.20001V6.40002Z" fill="#D4AF2C"/>
    <path fill-rule="evenodd" clip-rule="evenodd" d="M5.33334 6.40002H6.40001V8.00002H5.33334V6.40002ZM7.46668 8.53336H8.53334V10.1334H7.46668V8.53336Z" fill="#AF010D"/>
    <path fill-rule="evenodd" clip-rule="evenodd" d="M5.33334 8.53333H6.40001V10.1333H5.33334V8.53333Z" fill="#FFDA2C"/>
    <path fill-rule="evenodd" clip-rule="evenodd" d="M7.46667 6.40002H8.53334V8.00002H7.46667V6.40002Z" fill="#AE6A3E"/>
    <path fill-rule="evenodd" clip-rule="evenodd" d="M6.40001 6.40004L5.33334 5.33337H8.53334L7.46668 6.40004H6.40001Z" fill="#AF010D"/>
    <path fill-rule="evenodd" clip-rule="evenodd" d="M6.39999 4.26672H7.46666V5.33339H6.39999V4.26672Z" fill="#D4AF2C"/>
    </g>
    <defs>
    <clipPath id="clip0_11601_21913">
    <rect width="22.4" height="16" rx="3" fill="white"/>
    </clipPath>
    </defs>
</svg>
