<svg width="23" height="16" viewBox="0 0 23 16" fill="none" xmlns="http://www.w3.org/2000/svg">
    <g clip-path="url(#clip0_11601_21917)">
    <rect width="22.4" height="16" rx="3" fill="white"/>
    <path fill-rule="evenodd" clip-rule="evenodd" d="M0 0H4.26667V4.26667H0V0ZM6.4 0H10.6667V4.26667H6.4V0ZM0 6.4H4.26667V10.6667H0V6.4ZM6.4 6.4H10.6667V10.6667H6.4V6.4ZM10.6667 0H22.4V2.13333H10.6667V0ZM10.6667 4.26667H22.4V6.4H10.6667V4.26667Z" fill="#1A47B8"/>
    <path fill-rule="evenodd" clip-rule="evenodd" d="M0 8.53333H22.4V10.6667H0V8.53333ZM4.26667 8.53333H6.4V10.6667H4.26667V8.53333ZM0 12.8H22.4V14.9333H0V12.8Z" fill="#1A47B8"/>
    </g>
    <defs>
    <clipPath id="clip0_11601_21917">
    <rect width="22.4" height="16" rx="3" fill="white"/>
    </clipPath>
    </defs>
</svg>
