<svg width="23" height="16" viewBox="0 0 23 16" fill="none" xmlns="http://www.w3.org/2000/svg">
<rect width="22.4" height="16" rx="3" fill="#F93939"/>
<path d="M0 3C0 1.34315 1.34315 0 3 0H7.5V16H3C1.34315 16 0 14.6569 0 13V3Z" fill="#249F58"/>
<path d="M7.46758 10.6666C9.23489 10.6666 10.6676 9.23391 10.6676 7.4666C10.6676 5.69929 9.23489 4.2666 7.46758 4.2666C5.70027 4.2666 4.26758 5.69929 4.26758 7.4666C4.26758 9.23391 5.70027 10.6666 7.46758 10.6666Z" fill="#FFDA2C"/>
<path fill-rule="evenodd" clip-rule="evenodd" d="M9.60065 8.5335V5.3335H5.33398V8.5335C5.33398 9.1223 6.28865 9.60016 7.46732 9.60016C8.64598 9.60016 9.60065 9.1223 9.60065 8.5335Z" fill="#F93939"/>
<path fill-rule="evenodd" clip-rule="evenodd" d="M6.40039 6.3999H8.53372V8.53324H6.40039V6.3999Z" fill="white"/>
<path fill-rule="evenodd" clip-rule="evenodd" d="M6.40039 6.3999H7.46706V7.46657H6.40039V6.3999ZM7.46706 7.46657H8.53372V8.53324H7.46706V7.46657Z" fill="#1A47B8"/>
</svg>
