<svg width="23" height="16" viewBox="0 0 23 16" fill="none" xmlns="http://www.w3.org/2000/svg">
    <g clip-path="url(#clip0_11601_21915)">
    <rect width="22.4" height="16" rx="3" fill="white"/>
    <path fill-rule="evenodd" clip-rule="evenodd" d="M0 0H9.6V7.46667H0V0Z" fill="#1A47B8"/>
    <path fill-rule="evenodd" clip-rule="evenodd" d="M9.6 0V1.06667H22.4V0H9.6ZM9.6 2.13333V3.2H22.4V2.13333H9.6ZM9.6 4.26667V5.33333H22.4V4.26667H9.6ZM9.6 6.4V7.46667H22.4V6.4H9.6ZM0 8.53333V9.6H22.4V8.53333H0ZM0 10.6667V11.7333H22.4V10.6667H0ZM0 12.8V13.8667H22.4V12.8H0ZM0 14.9333V16H22.4V14.9333H0Z" fill="#F93939"/>
    <path fill-rule="evenodd" clip-rule="evenodd" d="M1.06668 1.06665V2.13332H2.13335V1.06665H1.06668ZM3.20001 1.06665V2.13332H4.26668V1.06665H3.20001ZM5.33335 1.06665V2.13332H6.40001V1.06665H5.33335ZM7.46668 1.06665V2.13332H8.53335V1.06665H7.46668ZM6.40001 2.13332V3.19998H7.46668V2.13332H6.40001ZM4.26668 2.13332V3.19998H5.33335V2.13332H4.26668ZM2.13335 2.13332V3.19998H3.20001V2.13332H2.13335ZM1.06668 3.19998V4.26665H2.13335V3.19998H1.06668ZM3.20001 3.19998V4.26665H4.26668V3.19998H3.20001ZM5.33335 3.19998V4.26665H6.40001V3.19998H5.33335ZM7.46668 3.19998V4.26665H8.53335V3.19998H7.46668ZM1.06668 5.33332V6.39998H2.13335V5.33332H1.06668ZM3.20001 5.33332V6.39998H4.26668V5.33332H3.20001ZM5.33335 5.33332V6.39998H6.40001V5.33332H5.33335ZM7.46668 5.33332V6.39998H8.53335V5.33332H7.46668ZM6.40001 4.26665V5.33332H7.46668V4.26665H6.40001ZM4.26668 4.26665V5.33332H5.33335V4.26665H4.26668ZM2.13335 4.26665V5.33332H3.20001V4.26665H2.13335Z" fill="white"/>
    </g>
    <defs>
    <clipPath id="clip0_11601_21915">
    <rect width="22.4" height="16" rx="3" fill="white"/>
    </clipPath>
    </defs>
</svg>
